<?xml version="1.0" encoding="UTF-8" standalone="no"?>
<!-- Created with Inkscape (http://www.inkscape.org/) -->
<svg
   xmlns:dc="http://purl.org/dc/elements/1.1/"
   xmlns:cc="http://creativecommons.org/ns#"
   xmlns:rdf="http://www.w3.org/1999/02/22-rdf-syntax-ns#"
   xmlns:svg="http://www.w3.org/2000/svg"
   xmlns="http://www.w3.org/2000/svg"
   xmlns:sodipodi="http://sodipodi.sourceforge.net/DTD/sodipodi-0.dtd"
   xmlns:inkscape="http://www.inkscape.org/namespaces/inkscape"
   width="48px"
   height="48px"
   id="svg2382"
   sodipodi:version="0.32"
   inkscape:version="0.46"
   sodipodi:docname="çizim.svg"
   inkscape:output_extension="org.inkscape.output.svg.inkscape"
   inkscape:export-filename="/home/emre/uludag/trunk/staj-projeleri/sahip/src/sahip/images/icon.png"
   inkscape:export-xdpi="90"
   inkscape:export-ydpi="90">
  <defs
     id="defs2384">
    <inkscape:perspective
       sodipodi:type="inkscape:persp3d"
       inkscape:vp_x="0 : 24 : 1"
       inkscape:vp_y="0 : 1000 : 0"
       inkscape:vp_z="48 : 24 : 1"
       inkscape:persp3d-origin="24 : 16 : 1"
       id="perspective2390" />
  </defs>
  <sodipodi:namedview
     id="base"
     pagecolor="#ffffff"
     bordercolor="#666666"
     borderopacity="1.0"
     inkscape:pageopacity="0.0"
     inkscape:pageshadow="2"
     inkscape:zoom="7"
     inkscape:cx="24"
     inkscape:cy="24"
     inkscape:current-layer="layer1"
     showgrid="true"
     inkscape:grid-bbox="true"
     inkscape:document-units="px"
     inkscape:window-width="1280"
     inkscape:window-height="977"
     inkscape:window-x="-4"
     inkscape:window-y="-4" />
  <metadata
     id="metadata2387">
    <rdf:RDF>
      <cc:Work
         rdf:about="">
        <dc:format>image/svg+xml</dc:format>
        <dc:type
           rdf:resource="http://purl.org/dc/dcmitype/StillImage" />
      </cc:Work>
    </rdf:RDF>
  </metadata>
  <g
     id="layer1"
     inkscape:label="Layer 1"
     inkscape:groupmode="layer">
    <path
       style="fill:#000000;fill-opacity:1;fill-rule:nonzero;stroke:none;stroke-width:1px;stroke-linecap:butt;stroke-linejoin:miter;stroke-opacity:1"
       id="path2392"
       d="M 23.521687,9.9026459 C 23.749982,9.656452 23.964779,9.3977437 24.151601,9.1184903 C 24.281559,8.876584 24.359332,8.6075291 24.420118,8.340591 C 24.474764,8.0654746 24.481436,7.7843564 24.486648,7.5048679 C 24.457799,7.260533 24.402549,7.0209614 24.374601,6.7761028 C 24.375992,6.5232269 24.321191,6.2900458 24.233332,6.0554291 C 24.125158,5.7961179 23.993169,5.5501223 23.850951,5.3085413 C 23.725396,5.1279842 23.581681,4.965962 23.418432,4.8191696 C 23.249554,4.6533923 23.033363,4.5858046 22.830712,4.4796036 C 22.605824,4.3940335 22.374134,4.3193552 22.139646,4.2621196 C 21.867946,4.2050893 21.589583,4.1983759 21.313069,4.1928754 C 21.027598,4.1895043 20.742097,4.191059 20.456615,4.1917164 C 20.176229,4.1994157 19.892375,4.1476432 19.635145,4.2776101 C 19.724451,4.1852835 19.158477,4.5248197 19.303256,4.442307 C 21.596747,3.1351965 21.567321,3.09109 20.936223,3.5194912 C 20.869138,3.5737698 20.85156,3.6496125 20.826472,3.7282899 L 18.896871,4.6181212 C 18.943199,4.531151 18.951284,4.4453257 18.976671,4.3504707 C 19.013146,4.282016 19.007748,4.269178 19.075069,4.2287897 C 19.838626,3.7707052 20.487999,3.2501298 21.30759,2.9805322 C 21.591611,2.9313525 21.879728,2.9536374 22.166905,2.9486265 C 22.453767,2.948208 22.740713,2.9467921 23.027481,2.9554237 C 23.315125,2.9675748 23.604127,2.9869185 23.883084,3.0636775 C 24.126097,3.1339181 24.373337,3.1998292 24.600733,3.3125447 C 24.82722,3.414084 25.033137,3.5377091 25.220341,3.7027392 C 25.397906,3.8648056 25.549958,4.0496016 25.683023,4.2499032 C 25.828574,4.5027473 25.964302,4.7598374 26.083548,5.0264277 C 26.179909,5.2764297 26.259553,5.5226511 26.250483,5.7951523 C 26.275326,6.0490015 26.327611,6.2968687 26.371924,6.547685 C 26.368962,6.8383466 26.365561,7.130156 26.322751,7.4182764 C 26.271695,7.7071962 26.184109,7.9870162 26.083139,8.2618368 C 25.924632,8.5585257 25.702493,8.8261827 25.47216,9.0693296 L 23.521687,9.9026459 z" />
    <path
       style="fill:#000000;fill-opacity:1;fill-rule:nonzero;stroke:none;stroke-width:1px;stroke-linecap:butt;stroke-linejoin:miter;stroke-opacity:1"
       id="path2394"
       d="M 23.685412,8.4076737 C 24.028549,8.5004404 24.335966,8.677825 24.663678,8.8096359 C 24.908097,8.9556551 25.178951,9.0415159 25.447136,9.1313118 C 25.68446,9.2126048 25.926272,9.1937728 26.157545,9.1037544 C 26.198325,9.0907248 26.241022,9.0826258 26.279883,9.0646656 C 26.316706,9.047647 26.348472,9.021331 26.382767,8.9996637 C 26.418843,8.9811901 26.453939,8.9606603 26.490996,8.9442429 C 26.608844,8.8920327 26.730458,8.8676112 26.856365,8.8445904 C 27.12963,8.7930822 27.386404,8.8071954 27.642603,8.914474 C 27.897412,8.9909054 28.072656,9.1630537 28.247451,9.3509329 C 28.453528,9.5422693 28.549178,9.7923814 28.608528,10.060272 C 28.662932,10.338151 28.665075,10.612526 28.594641,10.886238 C 28.21086,11.753615 27.183717,12.259625 26.288621,12.446604 C 26.029172,12.450486 25.78735,12.515898 25.535637,12.566661 C 25.272719,12.611073 25.005447,12.615929 24.739502,12.620592 C 24.454881,12.623757 24.170233,12.62267 23.885601,12.622236 C 23.593958,12.614293 23.362516,12.609164 23.078939,12.679984 C 22.414052,12.850634 20.977124,13.808659 24.499648,11.815568 C 24.553044,11.785356 24.39816,11.885921 24.355514,11.930025 C 24.248885,12.095096 24.236007,12.251642 24.362807,12.403285 C 24.488872,12.551925 24.626922,12.695716 24.776677,12.821444 C 24.91343,12.967716 25.041622,13.113402 25.234259,13.18037 C 25.475778,13.237462 25.726223,13.235802 25.972988,13.238726 C 26.219904,13.264124 26.437477,13.371181 26.669338,13.446253 C 26.942038,13.498217 27.129266,13.490128 27.331131,13.704881 C 27.495439,13.920907 27.438169,14.112806 27.338711,14.336368 C 27.225115,14.519626 27.132295,14.712925 26.997162,14.881864 C 26.335616,15.553039 25.40902,15.867335 24.603038,16.336689 C 24.376227,16.446636 24.122483,16.460235 23.875096,16.473284 C 23.611291,16.565357 23.322046,16.546217 23.060308,16.635576 C 22.834126,16.703735 22.598397,16.724682 22.409269,16.876068 C 21.671346,17.304344 23.644434,16.159109 24.048734,15.929915 C 24.078542,15.913017 23.995257,15.972781 23.968061,15.993627 C 23.874252,16.065534 23.786828,16.134001 23.702305,16.216951 C 23.533444,16.375784 23.36984,16.539894 23.244562,16.735854 C 22.776446,17.788094 22.520208,17.527752 21.007575,18.41029 C 20.736603,18.481952 20.454176,18.481318 20.175903,18.483833 C 19.914809,18.49351 19.668345,18.404853 19.432408,18.304445 C 19.216787,18.219677 19.00459,18.102284 18.815832,17.966609 C 18.67198,17.79066 18.476871,17.687378 18.279867,17.583456 C 18.061083,17.493325 17.821157,17.488555 17.588057,17.48006 C 17.338401,17.45126 17.148443,17.319141 16.948229,17.182612 C 16.77851,17.02259 16.652749,16.827077 16.57317,16.608646 C 16.495367,16.366004 16.402723,16.129486 16.318266,15.88925 C 16.197975,15.675225 16.131301,15.445807 16.092508,15.204991 C 16.057661,14.9264 16.057651,14.645064 16.056151,14.364769 C 16.016667,14.089445 15.984712,13.811891 15.933995,13.538336 C 15.853467,13.260098 15.837678,12.96944 15.78012,12.687298 C 15.702588,12.436259 15.675412,12.175694 15.636654,11.917207 C 15.573882,11.602756 15.541001,11.284185 15.472533,10.970954 C 15.395942,10.683129 15.385281,10.385022 15.34301,10.09198 C 15.274056,9.8177062 15.261905,9.5334097 15.207604,9.2571143 C 15.137774,8.9684142 15.099364,8.674579 15.076625,8.3788793 C 15.059643,8.0897203 15.043404,7.8006603 15.089127,7.5137853 C 15.122057,7.2426361 15.189669,6.9805816 15.273661,6.7213852 C 15.369206,6.505234 15.430916,6.2807343 15.54969,6.0755311 C 15.700752,5.8351574 15.838323,5.5885021 15.957801,5.3310897 C 16.082041,5.1052762 16.227183,4.8908226 16.396385,4.6963676 C 17.004647,3.9789173 18.111694,3.5688538 18.822033,3.1706151 C 19.102484,3.0967563 19.394014,3.0932749 19.682076,3.0892419 C 19.969259,3.0878188 20.256444,3.0902634 20.543624,3.0914333 C 20.802934,3.0829851 21.047989,3.1694698 21.28278,3.2684761 C 21.484216,3.3618417 21.67177,3.4525243 21.893654,3.4901661 C 22.157713,3.5312457 22.377325,3.5292447 22.634855,3.4650259 C 23.29472,3.0396778 22.559241,3.5161381 20.985577,4.3943348 C 20.956355,4.4106424 21.039115,4.3541511 21.065236,4.3332338 C 21.149258,4.2659516 21.19991,4.2005723 21.255862,4.109019 C 21.306127,4.027593 21.278664,4.0562907 21.327578,4.0138512 L 23.288619,3.1721241 C 23.250229,3.2393461 23.277095,3.2079531 23.200627,3.2594364 C 23.06898,3.4357404 23.209559,3.2343248 23.094512,3.4473165 C 23.064869,3.5021957 23.01263,3.5745954 22.957021,3.6078047 C 21.086067,4.7251156 21.772021,4.5704018 20.943939,4.7420515 C 20.680431,4.7762042 20.412526,4.7492595 20.152589,4.6979366 C 19.930892,4.6382068 19.732828,4.5323328 19.520274,4.4483051 C 19.300685,4.3634751 19.068516,4.3233157 18.832595,4.3334774 C 18.546779,4.3322555 18.260874,4.3292617 17.97512,4.3368985 C 17.698941,4.3489296 17.41808,4.3656148 17.162731,4.4824081 C 17.725923,4.1556121 18.291297,3.8325484 18.852306,3.50202 C 18.891706,3.4788071 18.768029,3.537967 18.728053,3.5601718 C 18.584268,3.6400363 18.475932,3.7653072 18.346616,3.8646956 C 18.194749,4.0651751 18.01231,4.2409072 17.88692,4.462591 C 17.743374,4.7061956 17.65716,4.9836698 17.484281,5.212306 C 17.431677,5.307185 17.349912,5.3979438 17.312826,5.5002775 C 17.272894,5.610464 17.266235,5.734357 17.199225,5.8354381 C 17.074682,6.0631995 17.030049,6.3318268 16.98972,6.5855361 C 16.939735,6.8588176 16.927971,7.1278164 16.953205,7.4064519 C 16.970415,7.6926368 16.999476,7.9784875 17.073432,8.2564505 C 17.136683,8.5343281 17.134472,8.824382 17.210205,9.1010326 C 17.264813,9.3889624 17.257305,9.6862828 17.332845,9.9716114 C 17.403197,10.287573 17.438369,10.607211 17.501407,10.924715 C 17.554245,11.177483 17.564317,11.438295 17.64522,11.685744 C 17.710519,11.967555 17.710828,12.262327 17.796739,12.541094 C 17.860457,12.825435 17.878724,13.118645 17.939816,13.404093 C 17.940418,13.674895 17.939086,13.946395 17.965082,14.21623 C 17.995275,14.446799 18.056257,14.662307 18.172872,14.865683 C 18.253453,15.106737 18.347355,15.342702 18.429231,15.583251 C 18.487372,15.760798 18.59115,15.921828 18.737042,16.040426 C 18.910324,16.159656 19.092006,16.24061 19.306813,16.246074 C 19.56583,16.26572 19.826954,16.295457 20.05738,16.425796 C 20.252825,16.541181 20.445085,16.656039 20.600694,16.824774 C 20.789439,16.941754 20.985721,17.050126 21.195221,17.125309 C 21.414876,17.211115 21.647063,17.253495 21.883544,17.236793 C 22.147933,17.226217 22.421877,17.217135 22.657249,17.081889 C 22.091213,17.415212 21.524807,17.747909 20.959141,18.081859 C 20.924829,18.102116 21.03089,18.046338 21.063169,18.022978 C 21.200335,17.923713 21.272411,17.764085 21.313792,17.605342 C 21.412921,17.373296 21.566371,17.196851 21.740684,17.019158 C 22.00022,16.79886 21.65766,17.098686 21.907541,16.848865 C 21.93336,16.823052 22.043971,16.739874 22.078393,16.719224 C 23.774076,15.701975 23.339369,15.94651 24.059946,15.542919 C 24.282797,15.460966 24.512877,15.408965 24.742996,15.350873 C 25.021599,15.308518 25.297907,15.253904 25.576757,15.214875 C 25.816434,15.186668 26.047923,15.136218 26.258769,15.012524 C 26.977627,14.709363 26.300348,14.989765 24.654537,15.957902 C 24.621099,15.977572 24.727087,15.92978 24.76113,15.911176 C 24.906638,15.831657 24.813595,15.866346 24.944674,15.763435 C 24.97489,15.739712 25.009685,15.722489 25.042191,15.702016 C 25.197771,15.554327 25.305669,15.388025 25.395901,15.19379 C 25.498405,15.078133 25.417816,15.183671 25.489579,15.041164 C 25.537006,14.946984 25.611521,14.92508 25.52348,14.81765 C 25.351879,14.681068 25.108033,14.725262 24.912945,14.63433 C 24.701449,14.555404 24.48792,14.482351 24.259037,14.477914 C 23.99109,14.468709 23.71664,14.46033 23.466479,14.35293 C 23.274106,14.248612 23.125061,14.097529 22.973624,13.941238 C 22.820495,13.798963 22.667054,13.653795 22.538016,13.489067 C 22.379487,13.271438 22.322773,13.051121 22.415098,12.789159 C 22.75637,11.916753 23.889982,11.600812 24.768364,11.401597 C 25.042424,11.361225 25.320082,11.385319 25.596254,11.379631 C 25.879886,11.379759 26.163591,11.38066 26.447133,11.372421 C 26.707531,11.361997 26.968788,11.346203 27.223239,11.285574 C 27.468561,11.230473 27.721193,11.223234 27.960794,11.14543 C 28.658802,10.796425 28.04549,11.100128 26.357964,12.097242 C 26.326069,12.116088 26.425453,12.065705 26.45566,12.044259 C 26.551764,11.976031 26.534823,11.963947 26.605505,11.870205 C 26.627815,11.840616 26.653256,11.813522 26.677131,11.78518 C 26.782202,11.550244 26.785799,11.311023 26.742493,11.058667 C 26.699302,10.821517 26.621393,10.614779 26.434283,10.451841 C 26.282668,10.285648 26.112406,10.161911 25.88979,10.103717 C 25.64983,10.047481 25.41174,10.064631 25.173871,10.130527 C 24.93579,10.20623 24.722551,10.340552 24.47622,10.391848 C 24.206672,10.432212 23.951956,10.421943 23.695376,10.31669 C 23.426373,10.220052 23.159282,10.122486 22.910379,9.9793564 C 22.597467,9.8409094 22.291206,9.677986 21.948216,9.6265027 L 23.685412,8.4076737 z" />
    <path
       style="fill:#000000;fill-opacity:1;fill-rule:nonzero;stroke:none;stroke-width:1px;stroke-linecap:butt;stroke-linejoin:miter;stroke-opacity:1"
       id="path2406"
       d="M 23.408794,17.295813 C 23.707076,17.494911 24.043824,17.612582 24.364295,17.765691 C 24.59145,17.869303 24.802959,18.002894 25.020989,18.124063 C 25.222096,18.191911 25.370941,18.349099 25.560512,18.437996 C 25.766395,18.503353 25.958669,18.618811 26.120145,18.761888 C 26.299844,18.901272 26.464295,19.057657 26.612386,19.230741 C 26.776496,19.469628 26.981465,19.664235 27.189507,19.862494 C 27.379924,20.044324 27.57128,20.229474 27.794127,20.37177 C 27.995985,20.527856 28.208212,20.670809 28.422896,20.808409 C 28.652627,20.955322 28.883862,21.107256 29.12822,21.228465 C 29.423219,21.374924 29.711147,21.533514 29.993679,21.703183 C 30.317559,21.86217 30.611526,22.075652 30.888911,22.304665 C 31.187826,22.520516 31.463897,22.764573 31.733498,23.015385 C 32.042921,23.313158 32.380641,23.579738 32.719657,23.842652 C 33.08713,24.12777 33.438375,24.431595 33.797232,24.72723 C 34.122306,24.976031 34.401615,25.269493 34.668137,25.578033 C 34.914155,25.848674 35.190206,26.087534 35.460323,26.33331 C 35.713669,26.580984 35.916985,26.869855 36.12769,27.152658 C 36.344506,27.430281 36.546198,27.719503 36.743174,28.011453 C 36.94346,28.282341 37.099077,28.582871 37.262008,28.877039 C 37.442614,29.151024 37.595515,29.445861 37.724128,29.74774 C 37.866575,30.033123 37.999855,30.323469 38.165545,30.596335 C 38.319322,30.851152 38.454418,31.119233 38.642238,31.351308 C 38.814095,31.56384 38.947436,31.80161 39.082679,32.03795 C 39.21005,32.269645 39.343243,32.497726 39.473332,32.728091 C 39.564476,32.946592 39.6623,33.163295 39.72539,33.392141 C 39.756473,33.633508 39.827792,33.865698 39.877556,34.103292 C 39.910105,34.372738 39.945767,34.639492 39.996623,34.906271 C 40.052029,35.193182 40.069157,35.485003 40.079444,35.776395 C 40.067658,36.028959 40.014244,36.279077 39.96657,36.527206 C 39.89886,36.770568 39.740595,36.969381 39.619437,37.186491 C 39.497594,37.443144 39.310043,37.65602 39.108762,37.853143 C 38.906365,38.055469 38.705562,38.258936 38.504237,38.462376 C 38.303201,38.653578 38.111992,38.854758 37.90254,39.036973 C 37.866985,39.06563 37.835209,39.099747 37.795874,39.122945 C 37.156853,39.499806 36.504166,39.853386 35.868796,40.23637 C 34.458986,41.086165 42.370883,36.45512 35.654197,40.362429 C 35.08339,40.694485 36.797293,39.700848 37.371411,39.374551 C 37.403742,39.356176 37.310438,39.417143 37.279951,39.438439 C 37.08419,39.570682 36.881195,39.692146 36.699061,39.843148 C 36.496187,39.977272 36.305323,40.127836 36.106191,40.267935 C 35.425724,40.741849 34.707665,41.080822 33.97227,41.523879 C 33.408105,41.863775 35.113367,40.865736 35.685302,40.539084 C 35.893709,40.420055 35.531508,40.634641 35.497411,40.654896 C 34.342121,41.391237 31.627944,42.888169 35.231069,40.831379 C 35.261644,40.813926 35.172977,40.871195 35.143262,40.890076 C 35.002559,40.979477 35.112301,40.898904 34.977164,41.004756 C 34.342454,41.373916 33.712476,41.751335 33.073034,42.112237 C 33.039915,42.130929 32.997847,42.126888 32.962805,42.141664 C 32.930518,42.155277 32.904242,42.180388 32.873138,42.196522 C 32.841202,42.213086 32.743019,42.257559 32.774146,42.23952 C 34.7614,41.087806 35.053511,40.897314 34.418823,41.306407 C 33.780976,41.670693 33.147907,42.043477 32.50528,42.399263 C 32.471662,42.417876 32.429151,42.413199 32.393558,42.427681 C 32.360877,42.440978 32.334016,42.465768 32.302558,42.481745 C 32.270335,42.498111 32.171644,42.542611 32.202922,42.524502 C 34.24427,41.342615 34.48252,41.189783 33.847414,41.592113 C 32.87976,41.383204 32.484326,42.517662 31.714408,42.788613 C 31.587422,42.833302 31.465423,42.85007 31.342852,42.907394 C 31.078727,43.019163 30.78692,43.026167 30.504431,43.041133 C 30.137656,43.070444 29.773747,43.132376 29.405633,43.159178 C 29.048532,43.183708 28.69059,43.189933 28.332778,43.192865 C 28.040202,43.202519 27.7536,43.276534 27.46139,43.307137 C 27.174763,43.33262 26.886799,43.334624 26.599264,43.336435 C 26.359433,43.409022 26.113242,43.443585 25.864217,43.462708 C 25.620137,43.49116 25.386672,43.568105 25.139504,43.596118 C 25.095754,43.599514 25.05128,43.597684 25.008254,43.606305 C 24.932832,43.621418 24.863145,43.657923 24.788796,43.677643 C 24.669703,43.70923 24.56449,43.718322 24.452397,43.771535 C 24.350835,43.832317 24.22703,43.827977 24.118791,43.864127 C 24.012761,43.899538 23.918616,43.953937 23.808633,43.984691 C 23.516043,44.04383 23.229135,44.106601 22.931381,44.142051 C 22.589645,44.230499 22.243107,44.291562 21.891045,44.315348 C 21.548153,44.3362 21.20458,44.335384 20.861228,44.335502 C 20.503113,44.311684 20.152645,44.387783 19.799081,44.431402 C 19.495684,44.467034 19.190126,44.474177 18.884997,44.478216 C 18.5989,44.480554 18.312789,44.479611 18.026686,44.479222 C 17.74125,44.478808 17.455814,44.478668 17.170377,44.478585 C 16.85065,44.477214 16.530923,44.477051 16.211191,44.477505 C 15.912022,44.478027 15.612854,44.478295 15.313685,44.47844 C 15.027637,44.478549 14.741589,44.478545 14.455541,44.478547 C 14.170015,44.478546 13.88449,44.478541 13.598965,44.478539 C 13.348609,44.464094 13.076787,44.424822 12.841295,44.332847 C 12.610435,44.259414 12.435941,44.09158 12.254716,43.939948 C 12.076681,43.753733 11.961074,43.51801 11.831629,43.297189 C 11.707971,43.094805 11.626641,42.875833 11.53406,42.659138 C 11.453253,42.446337 11.378255,42.23106 11.306117,42.014884 C 11.240869,41.787617 11.118287,41.593468 10.987625,41.400232 C 10.854648,41.214226 10.7721,41.007197 10.679288,40.800569 C 10.572246,40.60085 10.466119,40.411529 10.406929,40.190376 C 10.352926,39.926096 10.332837,39.655787 10.372076,39.388604 C 10.422572,39.170367 10.530527,38.970911 10.642465,38.778725 C 10.76963,38.615879 10.862371,38.430962 10.990657,38.268919 C 11.121955,38.113802 11.242572,37.952574 11.349719,37.779474 C 11.41672,37.654033 11.487524,37.53217 11.547487,37.403015 L 13.485232,36.538264 C 13.404599,36.65486 13.37827,36.795719 13.282112,36.903737 C 13.238816,37.014295 13.185173,37.081261 13.123106,37.178173 C 13.065744,37.267738 13.039582,37.369481 12.938644,37.426236 C 12.823171,37.598235 12.681287,37.749243 12.591826,37.939311 C 12.444111,38.087958 12.384584,38.284914 12.277535,38.461596 C 12.221947,38.70207 12.222121,38.938299 12.271125,39.182119 C 12.319985,39.394081 12.428161,39.56684 12.526624,39.758062 C 12.615637,39.953132 12.687868,40.151943 12.816517,40.327263 C 12.957479,40.536915 13.083767,40.751778 13.164011,40.993188 C 13.231203,41.204311 13.309393,41.411522 13.382879,41.620153 C 13.473448,41.828198 13.544833,42.042568 13.66559,42.237215 C 13.781966,42.437599 13.886032,42.653912 14.052462,42.817776 C 14.214244,42.95649 14.384232,43.084623 14.59423,43.140213 C 14.828862,43.195332 15.066981,43.247855 15.309522,43.235747 C 15.595054,43.235745 15.880586,43.235741 16.166119,43.235739 C 16.452069,43.235741 16.73802,43.235737 17.02397,43.235843 C 17.322288,43.235985 17.620605,43.236245 17.918922,43.236768 C 18.239611,43.237228 18.560296,43.237043 18.880982,43.235856 C 19.16646,43.235987 19.451938,43.236226 19.737416,43.236585 C 20.022571,43.23681 20.307759,43.23761 20.592878,43.232299 C 20.892584,43.224614 21.192352,43.2105 21.489748,43.17029 C 21.84721,43.124031 22.204303,43.077544 22.565951,43.096053 C 22.90589,43.093833 23.246451,43.091093 23.585236,43.060192 C 23.932725,43.018616 24.273369,42.943906 24.61732,42.880922 C 24.909535,42.833724 25.199608,42.767551 25.483617,42.684701 C 25.695403,42.604404 25.913,42.546366 26.126346,42.470053 C 26.362007,42.418647 26.592764,42.345295 26.834464,42.32649 C 27.077641,42.282301 27.315107,42.207863 27.564022,42.200981 C 27.813166,42.168807 28.057046,42.100888 28.30845,42.091698 C 28.59165,42.087099 28.875403,42.0802 29.15668,42.043954 C 29.450101,42.00352 29.741812,41.937282 30.039867,41.950158 C 30.392143,41.946468 30.744699,41.939496 31.095838,41.908653 C 31.465721,41.871274 31.832663,41.808355 32.203991,41.787453 C 32.481807,41.761776 32.754298,41.718911 33.010312,41.601383 C 33.797749,41.368815 35.051143,40.464691 31.868229,42.357797 C 31.897933,42.340203 31.927437,42.322266 31.957342,42.305015 C 32.592948,41.938353 33.227579,41.56999 33.864754,41.206061 C 33.960878,41.151158 33.963041,41.165565 34.064745,41.122239 C 34.098102,41.108029 34.19383,41.056297 34.162535,41.074606 C 33.589709,41.409745 33.01411,41.74012 32.439898,42.072877 C 32.469522,42.055336 32.49897,42.037495 32.52877,42.020254 C 33.163815,41.652839 33.798174,41.284228 34.434429,40.918913 C 34.561367,40.84603 34.49778,40.893688 34.630378,40.831073 C 34.662656,40.815831 34.755024,40.761447 34.724231,40.779502 C 34.151108,41.115548 33.57698,41.449876 33.003354,41.785063 C 33.375509,41.540745 32.792761,41.931272 33.163802,41.654624 C 33.779772,41.195355 34.494436,40.885928 35.155553,40.494429 C 35.726108,40.15656 34.011004,41.164331 33.437383,41.496968 C 33.406731,41.514743 33.496819,41.458375 33.526536,41.439078 C 33.653143,41.321822 33.560642,41.394631 33.710323,41.307864 C 34.348093,40.93816 34.982743,40.563072 35.621851,40.195686 C 36.190499,39.868804 34.48916,40.857401 33.921706,41.186352 C 33.84624,41.2301 34.230919,41.002662 34.133852,41.033137 C 34.347514,40.915284 34.518551,40.744409 34.729277,40.628617 C 34.923528,40.492091 35.094665,40.325584 35.304615,40.210001 C 35.962043,39.802941 36.657975,39.45852 37.303321,39.032565 C 37.851593,38.670684 35.027093,40.345454 35.597898,40.020276 C 42.021201,36.361028 34.400235,40.662005 35.940802,39.830282 C 36.156114,39.653911 36.362638,39.470169 36.54811,39.261767 C 36.768575,39.082332 36.941406,38.851398 37.155488,38.66518 C 37.338719,38.468389 37.573689,38.297773 37.685837,38.049523 C 37.804964,37.84141 37.925254,37.641113 38.053011,37.438837 C 38.135532,37.217369 38.127793,36.968855 38.198486,36.741934 C 38.191511,36.460749 38.180696,36.17872 38.130976,35.901211 C 38.081112,35.63531 38.02767,35.372775 38.009196,35.102321 C 37.964363,34.867449 37.883961,34.641515 37.862167,34.402436 C 37.809508,34.188584 37.714419,33.990366 37.636246,33.785448 C 37.508498,33.554949 37.380033,33.325492 37.252742,33.094848 C 37.119682,32.868003 36.988575,32.640285 36.823117,32.434722 C 36.640067,32.189441 36.496839,31.918545 36.340722,31.65589 C 36.168315,31.374995 36.030352,31.075867 35.886759,30.779568 C 35.759658,30.484251 35.605927,30.199096 35.432316,29.928522 C 35.273829,29.639211 35.12006,29.344757 34.924644,29.078434 C 34.729491,28.789318 34.530258,28.502482 34.314696,28.228123 C 34.111342,27.956665 33.915771,27.678689 33.669466,27.442994 C 33.391986,27.192956 33.116789,26.941525 32.864749,26.66528 C 32.605603,26.365983 32.333038,26.08278 32.018526,25.839918 C 31.664003,25.542976 31.311579,25.243967 30.946038,24.960521 C 30.601668,24.693777 30.259507,24.422532 29.943247,24.122476 C 29.67453,23.877016 29.396465,23.642948 29.10628,23.423082 C 28.830436,23.204991 28.536513,23.012014 28.223892,22.850339 C 27.940319,22.686736 27.653294,22.530991 27.359688,22.386115 C 27.115065,22.248918 26.871878,22.107568 26.639177,21.950802 C 26.428549,21.805865 26.212176,21.669222 26.010841,21.511185 C 25.787511,21.35063 25.585855,21.163824 25.38871,20.972446 C 25.17538,20.770657 24.979152,20.55894 24.800595,20.325497 C 24.654491,20.165207 24.49075,20.023448 24.321159,19.888473 C 24.156344,19.765711 23.973453,19.678182 23.784347,19.598957 C 23.604303,19.491125 23.436379,19.363075 23.242056,19.279526 C 23.03403,19.155525 22.823051,19.03434 22.604156,18.930896 C 22.284976,18.786596 21.9736,18.626912 21.653406,18.486826 L 23.408794,17.295813 z" />
    <path
       style="fill:#000000;fill-opacity:1;fill-rule:nonzero;stroke:none;stroke-width:1px;stroke-linecap:butt;stroke-linejoin:miter;stroke-opacity:1"
       id="path2408"
       d="M 18.208143,44.379562 C 18.027824,44.659835 17.997213,44.955011 17.92361,45.244722 C 17.8517,45.46799 17.797244,45.692317 17.768319,45.917899 C 17.750676,46.079258 17.750373,46.240896 17.75001,46.402436 C 17.750259,46.558299 17.75097,46.714161 17.75133,46.870022 C 17.751646,47.026497 17.751682,47.182971 17.75171,47.339446 C 17.753283,47.486524 17.757127,47.633223 17.7328,47.779873 C 17.741644,47.885487 17.723104,47.985411 17.647026,48.08467 L 15.456171,48.537672 C 15.6495,48.502999 15.620343,48.384234 15.61583,48.301387 C 15.642957,48.025701 15.592816,48.465803 15.649562,48.178739 C 15.670006,48.075321 15.633955,47.969204 15.649559,47.865556 C 15.649537,47.709123 15.649511,47.552691 15.649214,47.396259 C 15.648867,47.240333 15.6482,47.084407 15.647744,46.928481 C 15.647806,46.764393 15.647411,46.600203 15.664576,46.43628 C 15.69376,46.206263 15.75197,45.977759 15.830066,45.750491 C 15.924655,45.460561 15.948186,45.16545 16.073287,44.877593 L 18.208143,44.379562 z" />
    <path
       style="fill:#000000;fill-opacity:1;fill-rule:nonzero;stroke:none;stroke-width:1px;stroke-linecap:butt;stroke-linejoin:miter;stroke-opacity:1"
       id="path2410"
       d="M 30.773142,42.748128 C 30.904168,43.34029 30.957144,43.943733 31.008252,44.545663 C 31.046731,45.036981 31.068564,45.529225 31.079511,46.021685 C 31.084836,46.272438 31.085869,46.523242 31.08611,46.774036 C 31.09862,46.955957 31.044878,47.131677 31.014055,47.309465 C 30.990491,47.423135 31.006378,47.367919 30.966899,47.475238 L 29.512507,48.082038 C 29.576808,48.015101 29.550884,48.053877 29.587112,47.963921 C 29.609954,47.789351 29.668951,47.620415 29.672262,47.445132 C 29.6741,47.192633 29.6778,46.940154 29.680277,46.687661 C 29.682634,46.193064 29.678571,45.698201 29.646425,45.20434 C 29.603215,44.613014 29.562759,44.011831 29.365474,43.444312 L 30.773142,42.748128 z" />
    <path
       style="fill:#000000;fill-opacity:1;fill-rule:nonzero;stroke:none;stroke-width:1px;stroke-linecap:butt;stroke-linejoin:miter;stroke-opacity:1"
       id="path2418"
       d="M 20.799799,9.0486927 C 21.286005,8.2254594 22.409371,7.3717359 23.289483,7.3975683 C 23.578419,7.5105947 23.576317,7.7848602 23.453772,8.0266267 C 22.921833,8.7419965 22.148156,8.9350764 21.284075,9.4124491 C 21.245766,9.4336133 21.197309,9.4266439 21.155832,9.4406129 C 21.118604,9.4531511 21.084951,9.4745029 21.04951,9.4914478 C 20.897857,9.5582474 20.73439,9.5800833 20.571546,9.5995377 L 22.263691,8.3260994 C 22.418594,8.2915036 22.569706,8.2469348 22.714396,8.180372 C 23.391244,7.9484529 24.326493,7.2649367 21.236007,9.0860993 C 21.212158,9.1001534 21.50891,8.9317669 21.506931,8.8656117 C 21.545223,8.8328651 21.783969,8.6140785 21.594236,8.6731479 C 20.914464,8.9859334 21.507257,8.7165813 23.19867,7.7215347 C 23.241727,7.6962049 23.108712,7.76601 23.068122,7.7951298 C 22.928906,7.8950076 22.820221,8.0301104 22.7313,8.1748207 L 20.799799,9.0486927 z" />
    <path
       style="fill:none;fill-rule:evenodd;stroke:#000000;stroke-width:1px;stroke-linecap:butt;stroke-linejoin:miter;stroke-opacity:1"
       d="M 19,3.2857143 C 18.991527,2.7398083 18.393612,2.3936122 18,2"
       id="path2420" />
    <path
       style="fill:none;fill-rule:evenodd;stroke:#000000;stroke-width:1px;stroke-linecap:butt;stroke-linejoin:miter;stroke-opacity:1"
       d="M 20.571428,2.8571429 C 20.580246,2.7211198 20.898607,1.5484284 21,1.1428571"
       id="path2422" />
    <path
       style="fill:none;fill-rule:evenodd;stroke:#000000;stroke-width:1px;stroke-linecap:butt;stroke-linejoin:miter;stroke-opacity:1"
       d="M 22.571428,3.1428572 C 22.603751,2.7509818 23.494361,2.0770672 23.857142,1.7142857"
       id="path2424" />
    <path
       style="fill:#000000;fill-opacity:1;fill-rule:nonzero;stroke:none;stroke-width:1px;stroke-linecap:butt;stroke-linejoin:miter;stroke-opacity:1"
       id="path2448"
       d="M 23.692951,23.969935 C 23.993399,24.5103 24.253476,25.072896 24.508046,25.636094 C 24.761418,26.203263 24.968197,26.791409 25.146851,27.386096 C 25.317575,27.847867 25.40544,28.33158 25.505185,28.811722 C 25.547677,29.163578 25.676359,29.487897 25.801235,29.815373 C 25.900902,30.086212 25.925371,30.373229 25.935784,30.659117 C 25.943662,30.979752 25.943035,31.300516 25.942935,31.621225 C 25.947979,31.831792 25.836744,32.031204 25.915641,32.23357 C 26.031367,32.374927 26.252862,32.363357 26.420293,32.374392 C 26.697994,32.386136 26.976064,32.382727 27.253933,32.38147 C 27.54311,32.401866 27.820995,32.319825 28.105291,32.280321 C 28.378831,32.281747 28.631895,32.210366 28.89541,32.152809 C 29.157313,32.104498 29.424333,32.099026 29.689828,32.093881 C 29.974196,32.090361 30.258596,32.091524 30.542979,32.091982 C 30.805749,32.126898 31.048154,32.22928 31.301741,32.298349 C 31.5639,32.322968 31.790496,32.420305 32.019486,32.540983 C 32.203986,32.686509 32.311788,32.909157 32.434082,33.107341 C 32.576654,33.355509 32.617332,33.63635 32.642468,33.916593 C 32.657688,34.207382 32.669244,34.499563 32.647163,34.790136 C 32.623117,35.075451 32.516747,35.320542 32.33712,35.539357 C 31.715675,36.21056 30.827961,36.527195 30.039315,36.979478 C 29.852567,37.086577 29.902132,37.058084 29.694404,37.14015 C 29.260234,37.31256 28.813835,37.450118 28.35583,37.543056 C 27.97416,37.60429 27.587552,37.617871 27.201774,37.623478 C 26.842615,37.693104 26.477097,37.723264 26.112195,37.742089 C 25.717976,37.75844 25.323253,37.762384 24.928719,37.762413 C 24.580447,37.762422 24.232174,37.764612 23.883905,37.762924 C 23.548315,37.787225 23.22171,37.709024 22.891184,37.665606 C 22.593063,37.658585 22.306835,37.59588 22.015128,37.542466 C 21.71475,37.45383 21.463913,37.301438 21.25789,37.06637 C 20.945,36.628567 20.774942,36.111837 20.594085,35.610415 C 20.381864,35.028433 20.29419,34.416028 20.199097,33.807292 C 20.11545,33.261805 20.089634,32.710491 20.074735,32.159605 C 20.064645,31.675365 20.065067,31.191026 20.063432,30.706714 C 20.035079,30.323426 19.983212,29.941484 19.914489,29.563367 C 19.810078,29.137782 19.710792,28.714976 19.709341,28.275416 C 19.722436,27.90466 19.750098,27.534748 19.762647,27.163956 C 19.775197,26.847051 19.780427,26.532248 19.740873,26.217392 C 19.683801,25.864463 19.660337,25.507737 19.64358,25.151012 C 19.630243,25.002584 19.59979,24.858315 19.562842,24.714369 L 21.417076,23.705746 C 21.463516,23.863886 21.501213,24.02192 21.518154,24.186471 C 21.529506,24.536722 21.548942,24.887121 21.60703,25.233266 C 21.658235,25.559712 21.664447,25.883331 21.643351,26.213711 C 21.630755,26.583975 21.610715,26.95362 21.583968,27.323134 C 21.571595,27.751573 21.648902,28.163587 21.769872,28.575025 C 21.842753,28.965508 21.903729,29.357602 21.933397,29.75422 C 21.930535,30.238205 21.928441,30.722262 21.934925,31.206222 C 21.946012,31.749446 21.964692,32.293617 22.04289,32.832118 C 22.13317,33.428828 22.208212,34.031987 22.408458,34.604542 C 22.582428,35.076297 22.759598,35.563722 23.061044,35.970692 C 23.250803,36.160877 23.484965,36.276204 23.748001,36.331926 C 24.036117,36.387297 24.325469,36.416641 24.617025,36.448039 C 24.940057,36.496081 25.261825,36.544991 25.589958,36.523636 C 25.936953,36.52259 26.283944,36.526087 26.630941,36.524635 C 27.022604,36.521528 27.414573,36.521214 27.805571,36.494935 C 28.173944,36.466094 28.538884,36.411679 28.906562,36.379835 C 29.282022,36.370739 29.65902,36.35265 30.027245,36.272673 C 30.477659,36.16619 30.919323,36.021464 31.342674,35.833646 C 32.009989,35.500893 32.978124,34.889836 30.026451,36.620915 C 29.88181,36.705744 30.509493,36.360979 30.386542,36.358278 C 30.569576,36.177368 30.724254,35.995163 30.752045,35.727063 C 30.800142,35.452088 30.767519,35.169519 30.765473,34.891534 C 30.749093,34.644566 30.727561,34.393062 30.602903,34.173168 C 30.498913,34.009178 30.409951,33.812055 30.245881,33.704238 C 30.027541,33.592969 29.793017,33.54758 29.555489,33.493293 C 29.319351,33.420857 29.082143,33.338817 28.832318,33.334588 C 28.549033,33.334475 28.265662,33.333536 27.982486,33.34258 C 27.722851,33.353969 27.462493,33.371706 27.209557,33.435834 C 26.946912,33.497164 26.680762,33.512677 26.413846,33.548356 C 26.12517,33.595412 25.838023,33.643921 25.543869,33.624681 C 25.260618,33.625086 24.976504,33.62852 24.694278,33.600673 C 24.443479,33.564571 24.199414,33.506144 24.061482,33.271908 C 23.944085,33.000146 23.991192,32.858247 24.060507,32.579769 C 24.06202,32.261539 24.065256,31.94323 24.057685,31.625052 C 24.047237,31.361241 24.037023,31.094332 23.952005,30.841685 C 23.829995,30.500989 23.695609,30.164661 23.656817,29.800653 C 23.56239,29.324847 23.476562,28.845663 23.314487,28.386867 C 23.14447,27.798071 22.948844,27.214459 22.704565,26.652085 C 22.464807,26.102408 22.20301,25.559126 21.872325,25.05809 L 23.692951,23.969935 z" />
    <path
       style="fill:#000000;fill-opacity:1;fill-rule:nonzero;stroke:none;stroke-width:1px;stroke-linecap:butt;stroke-linejoin:miter;stroke-opacity:1"
       id="path2450"
       d="M 28.319804,11.413703 C 28.836061,11.02425 29.32509,10.600944 29.804933,10.167972 C 30.556149,9.3804369 31.130378,8.4520084 31.59943,7.4752841 L 33.456265,6.6310816 C 32.989858,7.6142869 32.420215,8.5438771 31.723439,9.3822237 C 31.259374,9.8210288 30.770992,10.232364 30.273497,10.632776 L 28.319804,11.413703 z" />
    <path
       style="fill:#000000;fill-opacity:1;fill-rule:nonzero;stroke:none;stroke-width:1px;stroke-linecap:butt;stroke-linejoin:miter;stroke-opacity:1"
       id="path2452"
       d="M 31.290593,11.590563 C 32.112463,11.433308 32.93755,11.287703 33.765255,11.163223 C 34.54282,11.00847 35.33198,10.911544 36.105488,10.737721 L 34.452061,11.990255 C 33.679832,12.129217 32.902248,12.238175 32.131931,12.388725 C 31.291144,12.52301 30.446004,12.660948 29.622599,12.878337 L 31.290593,11.590563 z" />
    <path
       style="fill:#000000;fill-opacity:1;fill-rule:nonzero;stroke:none;stroke-width:1px;stroke-linecap:butt;stroke-linejoin:miter;stroke-opacity:1"
       id="path2456"
       d="M 32.183831,13.742773 C 32.950918,14.020463 33.744348,14.215576 34.524061,14.453867 C 35.236525,14.64534 35.943414,14.873725 36.592578,15.228568 L 34.837271,16.373536 C 34.209864,16.025274 33.529497,15.79372 32.838468,15.606116 C 32.040761,15.379018 31.239786,15.163765 30.443646,14.931185 L 32.183831,13.742773 z" />
    <path
       style="fill:#000000;fill-opacity:1;fill-rule:nonzero;stroke:none;stroke-width:1px;stroke-linecap:butt;stroke-linejoin:miter;stroke-opacity:1"
       id="path2458"
       d="M 18.086875,16.352902 C 18.074523,16.818123 18.018868,17.281341 17.941147,17.739815 C 17.895739,18.096582 17.803261,18.443729 17.73057,18.795131 C 17.654754,19.126859 17.551827,19.451788 17.449391,19.776067 C 17.322288,20.123086 17.171976,20.460643 17.017157,20.795963 C 16.854797,21.143452 16.699278,21.493514 16.52254,21.834088 C 16.290741,22.272963 16.001424,22.676211 15.757813,23.108494 C 15.482149,23.613125 15.245138,24.139933 15.04208,24.677803 C 14.847876,25.162224 14.601961,25.623177 14.393602,26.101426 C 14.230125,26.552491 14.053087,26.99832 13.87987,27.445673 C 13.692725,27.906119 13.591189,28.394185 13.466922,28.873819 C 13.327499,29.34988 13.278891,29.843962 13.202281,30.332199 C 13.149758,30.801617 13.064989,31.266442 13.004371,31.734738 C 12.929747,32.149001 12.86061,32.562941 12.823296,32.982354 C 12.797571,33.356734 12.808908,33.731384 12.760334,34.103895 C 12.710537,34.421147 12.681841,34.740715 12.666398,35.061296 C 12.650904,35.347108 12.665414,35.633731 12.64597,35.91921 C 12.586191,36.161969 12.565641,36.394938 12.589558,36.642998 C 12.623728,36.924452 12.639813,37.207403 12.64919,37.490612 C 12.675005,37.742299 12.710793,37.997774 12.833225,38.2223 L 10.994072,39.276366 C 10.858821,39.020563 10.807951,38.740769 10.76805,38.45605 C 10.760988,38.178083 10.749405,37.89998 10.714427,37.623877 C 10.683402,37.36171 10.65694,37.110564 10.746384,36.85492 C 10.806457,36.58006 10.75318,36.291653 10.779635,36.012216 C 10.792716,35.685057 10.817251,35.358416 10.869483,35.034871 C 10.92353,34.664863 10.929849,34.295668 10.943661,33.921818 C 10.971842,33.49788 11.033793,33.079297 11.12249,32.663657 C 11.182002,32.192323 11.274995,31.726519 11.322459,31.253581 C 11.399455,30.759256 11.445776,30.258562 11.579648,29.775179 C 11.708037,29.29252 11.80122,28.798708 11.978102,28.33068 C 12.141163,27.876385 12.34901,27.438302 12.491073,26.975992 C 12.69266,26.494315 12.934747,26.033396 13.15305,25.559119 C 13.343235,25.010526 13.587584,24.480641 13.849227,23.963069 C 14.083091,23.526785 14.367295,23.123479 14.604597,22.690927 C 14.800909,22.367286 14.932328,22.010771 15.099591,21.672238 C 15.248138,21.339268 15.41224,21.013461 15.539535,20.671162 C 15.654951,20.359372 15.736719,20.03579 15.830605,19.71731 C 15.896683,19.361825 16.008851,19.017484 16.056163,18.658184 C 16.141072,18.216199 16.21067,17.766097 16.198838,17.314905 L 18.086875,16.352902 z" />
    <path
       style="fill:#ffff00"
       d="M 14.697731,43.099824 C 14.272173,43.01745 13.741423,42.3606 13.426916,41.52707 C 13.28492,41.150753 12.989351,40.498829 12.770089,40.07835 C 12.297479,39.17204 12.249164,38.543773 12.642469,38.418943 C 12.821973,38.361973 12.889796,38.242236 12.843291,38.064406 C 12.803741,37.913166 12.934936,37.557696 13.14368,37.2505 C 13.548811,36.654293 13.612421,36.415024 13.335714,36.528154 C 12.557367,36.846379 12.610849,36.956854 12.720923,35.258133 C 12.846043,33.327217 13.160634,30.779944 13.460287,29.271429 C 13.796684,27.577936 14.914701,24.904607 16.656621,21.628571 C 17.262651,20.488813 17.942857,18.558439 17.942857,17.97834 C 17.942857,17.62492 18.26974,17.491319 18.444119,17.77347 C 18.49337,17.853166 18.783891,18.046021 19.089716,18.202041 C 19.806666,18.567804 20.794964,18.56697 21.514286,18.2 C 22.218009,17.840987 22.407441,17.838087 21.944991,18.193406 C 21.749736,18.343426 21.621166,18.491789 21.659277,18.523096 C 21.697387,18.554404 22.307143,18.887529 23.014286,19.263374 C 23.850173,19.707653 24.649866,20.281623 25.3,20.903929 C 25.870494,21.450006 26.852221,22.17645 27.585714,22.595281 C 29.094789,23.456979 32.021886,25.841834 33.442857,27.367397 C 33.992857,27.957884 34.764286,28.998053 35.157143,29.678893 C 35.55,30.359736 36.2743,31.607293 36.7667,32.451249 C 37.788171,34.202021 37.914486,34.563097 38.037714,36.084119 C 38.123343,37.140736 38.109814,37.208669 37.682571,37.869833 C 36.945829,39.009923 34.263257,41.077597 32.937971,41.526864 C 32.587086,41.645819 31.335714,41.816026 30.157143,41.90511 C 27.745776,42.087377 26.747529,42.23956 25.3,42.64557 C 24.72812,42.80597 23.443761,42.983387 22.3,43.05997 C 20.324086,43.192276 15.311147,43.21855 14.697733,43.09982 L 14.697731,43.099824 z M 29.085714,37.40936 C 30.176357,37.074233 31.861843,36.12324 32.3108,35.589683 C 32.653943,35.18188 32.681157,35.057033 32.633314,34.109766 C 32.590686,33.265677 32.519586,33.009777 32.2471,32.719723 C 31.751757,32.19245 30.724371,31.995654 29.17022,32.130346 C 28.455883,32.192257 27.453571,32.249323 26.942857,32.257167 L 26.014286,32.271429 L 25.925784,30.985714 C 25.829757,29.590711 25.456903,27.973933 24.87769,26.440954 C 24.562627,25.607083 23.864507,24.095979 23.719763,23.934567 C 23.685247,23.896079 22.124873,24.771263 21.82312,24.998356 C 21.796546,25.018351 21.934907,25.312974 22.13058,25.65307 C 22.996019,27.157284 23.942857,30.57101 23.942857,32.187069 C 23.942857,32.851094 24.010673,33.35353 24.114286,33.457143 C 24.330026,33.672886 25.94062,33.680436 27.482477,33.472934 C 28.451037,33.342589 28.767023,33.354526 29.4271,33.546416 C 30.400971,33.829524 30.657143,34.164607 30.657143,35.155331 C 30.657143,35.733194 30.5978,35.935996 30.397271,36.043309 C 29.554886,36.494149 24.408234,36.581784 23.529759,36.160251 C 22.393586,35.615067 21.987737,33.381583 21.676579,25.961856 C 21.626603,24.77016 21.544789,23.754236 21.494767,23.704243 C 21.444751,23.654246 20.995233,23.839804 20.495846,24.116587 L 19.587869,24.619834 L 19.628857,26.659917 C 19.651404,27.781961 19.726754,29.021429 19.796304,29.414286 C 19.865856,29.807143 19.9631,30.932143 20.012404,31.914286 C 20.114251,33.942996 20.35246,35.270861 20.802031,36.315916 C 21.39763,37.700424 21.664666,37.779121 25.514286,37.704669 C 27.600791,37.66432 28.497213,37.590194 29.085714,37.409361 L 29.085714,37.40936 z"
       id="path2460" />
    <path
       style="fill:#ffe6d5"
       d="M 20.589193,16.693139 C 20.294177,16.492934 19.851277,16.292244 19.604971,16.247159 C 19.358661,16.20207 19.018474,16.079024 18.848991,15.973713 C 18.508123,15.76191 18.150913,14.797067 18.0072,13.7 C 17.95574,13.307143 17.72735,11.861931 17.499673,10.48842 C 16.948991,7.1663186 16.955483,6.5009943 17.55,5.3293086 C 17.967131,4.50722 18.062933,4.4096271 18.493274,4.3684243 C 18.786669,4.3403329 18.938017,4.3779729 18.88388,4.4655686 C 18.831969,4.5495629 18.988013,4.6104886 19.262034,4.6132143 C 19.518629,4.6157671 20.047107,4.65993 20.43643,4.7113557 C 20.978011,4.7828914 21.255831,4.7447871 21.619139,4.5491329 C 22.078243,4.3018886 22.116214,4.3026214 22.764187,4.5711671 C 23.769707,4.9878943 24.255464,5.84836 24.343477,7.3687157 L 24.4105,8.5264943 L 24.031524,8.4313757 C 23.729127,8.35548 23.479787,8.4580871 22.797699,8.9391086 C 22.327536,9.2706757 21.943657,9.5775186 21.944637,9.62098 C 21.945617,9.6644443 22.426677,9.8844871 23.013661,10.10997 C 23.766493,10.399159 24.197354,10.490466 24.476169,10.419894 C 25.561256,10.145243 25.95467,10.161293 26.309564,10.494699 C 26.500731,10.674296 26.657143,10.938599 26.657143,11.082044 C 26.657143,11.309054 26.530904,11.342857 25.683071,11.342857 C 23.844851,11.342857 22.371429,12.086403 22.371429,13.014037 C 22.371429,13.521847 23.292971,14.485714 23.778477,14.485714 C 24.365723,14.485714 25.371429,14.802056 25.371429,14.986774 C 25.371429,15.086556 25.130357,15.212337 24.835714,15.26628 C 24.299617,15.364423 23.062659,15.994331 22.043656,16.688094 C 21.371701,17.145577 21.256494,17.14598 20.589193,16.693137 L 20.589193,16.693139 z M 21.982137,9.1127114 C 23.280281,8.4639 23.514286,8.2556657 23.514286,7.7492871 C 23.514286,7.2530957 23.16267,7.2140014 22.3,7.6142643 C 21.583869,7.9465371 20.637973,8.9180786 20.928469,9.0229829 C 21.077316,9.0767386 21.040836,9.1624671 20.785611,9.3586943 C 20.189314,9.8171543 20.840553,9.6832686 21.982137,9.1127071 L 21.982137,9.1127114 z"
       id="path2462" />
    <path
       style="fill:#000000"
       id="path2468"
       d="M 15.62741,45.647098 C 15.641544,45.245465 15.680632,44.842908 15.743204,44.445843 L 17.64088,43.526773 C 17.544856,43.900445 17.521447,44.301097 17.515447,44.685096 L 15.62741,45.647098 z" />
    <path
       style="fill:#000000"
       id="path2470"
       d="M 17.664814,46.916574 C 18.031397,46.867977 18.399691,46.836089 18.769141,46.821883 C 19.223392,46.810699 19.677809,46.812559 20.132156,46.811439 C 20.583572,46.81035 21.034997,46.811116 21.486414,46.812387 C 22.506845,46.79416 23.523502,46.873238 24.54096,46.938341 C 26.428353,47.007409 28.311294,47.142261 30.194495,47.282385 C 30.592977,47.313251 30.991805,47.33884 31.390817,47.361585 L 29.696104,48.573107 C 29.314426,48.535844 28.933036,48.495889 28.551896,48.453437 C 26.689938,48.255831 24.823969,48.106193 22.950499,48.081498 C 21.896812,48.040652 20.845097,48.018351 19.790864,48.044133 C 19.339406,48.044898 18.887945,48.044586 18.436488,48.043806 C 17.981957,48.044059 17.527105,48.045081 17.073027,48.067404 C 16.70323,48.090849 16.333154,48.121848 15.968816,48.192107 L 17.664814,46.916574 z" />
    <path
       style="fill:#de8787"
       id="path2472"
       d="M 30.011962,43.674226 C 29.961583,43.650848 29.911204,43.627471 29.860824,43.604093 L 31.616882,42.437562 C 31.672248,42.461361 31.727614,42.48516 31.78298,42.508959 L 30.011962,43.674226 z" />
    <path
       style="fill:#280b0b"
       d="M 26.014286,46.96797 C 24.442857,46.860813 21.914174,46.788826 20.39499,46.807999 L 17.632833,46.842857 L 17.72218,46.057143 C 17.911203,44.394811 17.841873,44.486016 18.918494,44.48339 C 20.744113,44.47894 23.037211,44.217381 24.450616,43.852386 C 25.857911,43.488966 28.059089,43.205464 29.442857,43.209406 L 30.157143,43.21144 L 29.750057,43.432021 C 29.386043,43.629271 29.351807,43.708001 29.426471,44.176303 C 29.4724,44.464337 29.552,45.2625 29.603371,45.95 L 29.696771,47.2 L 29.284104,47.181401 C 29.057131,47.171169 27.585714,47.075124 26.014286,46.967969 L 26.014286,46.96797 z"
       id="path2474" />
  </g>
</svg>
