<?xml version="1.0" encoding="UTF-8"?>
<!DOCTYPE svg PUBLIC "-//W3C//DTD SVG 20010904//EN"
 "http://www.w3.org/TR/2001/REC-SVG-20010904/DTD/svg10.dtd">
<svg width="172px" height="127px">
<path d="M49.981 13.889 C42.412,13.889 38.135,21.764 38.135,28.465 C38.135,34.770 38.460,39.889 38.135,42.655 C34.836,45.019 18.265,56.264 14,59.029 C21.225,59.029 34.260,59.029 38.207,59.029 C38.207,64.538 38.135,95.522 38.135,101.426 C38.135,107.341 44.046,116.634 49.981,116.25 C59.191,116.25 139.126,116.25 149.983,116.25 C158.205,116.25 161.5,110.366 161.5,102.087 C161.5,94.604 161.5,34.375 161.5,28.067 C161.821,20.591 155.903,13.889 149.326,13.889 C144.054,13.889 56.559,13.889 49.981,13.889 Z"
 style="stroke-width:3;stroke:rgb(128,128,128);stroke-opacity:0.2;fill:none;" />
<path d="M48.673 12.812 C41.156,12.812 36.907,20.648 36.907,27.322 C36.907,33.602 37.232,38.703 36.907,41.453 C33.625,43.810 17.616,55.975 13.375,58.725 C20.538,58.725 32.985,58.725 36.907,58.725 C36.907,64.220 36.907,94.106 36.907,99.993 C36.907,105.880 42.789,115.135 48.673,114.75 C57.829,114.75 137.266,114.75 148.054,114.75 C156.227,114.75 159.5,108.889 159.5,100.641 C159.5,93.191 159.5,33.212 159.5,26.928 C159.817,19.480 153.939,12.812 147.400,12.812 C142.163,12.812 55.214,12.812 48.673,12.812 Z"
 style="stroke-width:3;stroke:rgb(128,128,128);stroke-opacity:0.500;fill:none;" />
<path d="M46 10 C38.331,10 34,17.973 34,24.764 C34,31.149 34.331,36.341 34,39.134 C30.663,41.529 14.330,53.899 10,56.697 C17.329,56.697 30,56.697 34,56.697 C34,62.283 34,92.678 34,98.666 C34,104.649 40,114.062 46,113.666 C55.331,113.666 136.332,113.666 147.332,113.666 C155.666,113.666 159,107.702 159,99.332 C159,91.749 159,30.75 159,24.358 C159.332,16.783 153.332,10 146.666,10 C141.332,10 52.666,10 46,10 Z"
 style="stroke-width:0;fill:rgb(255,255,128);" />
<path d="M47.449 12.25 C40.004,12.25 35.788,19.887 35.788,26.383 C35.788,32.490 36.115,37.460 35.788,40.139 C32.557,42.432 16.691,54.278 12.5,56.952 C19.600,56.952 31.906,56.952 35.788,56.952 C35.788,62.302 35.788,91.403 35.788,97.132 C35.788,102.865 41.620,111.875 47.449,111.5 C56.508,111.5 135.157,111.5 145.832,111.5 C153.925,111.5 157.166,105.798 157.166,97.769 C157.166,90.512 157.166,32.115 157.166,25.990 C157.483,18.745 151.661,12.25 145.187,12.25 C140.003,12.25 53.925,12.25 47.449,12.25 Z"
 style="stroke-width:3;stroke:rgb(236,236,0);fill:none;" />
<path d="M47.079 11.330 C39.533,11.330 35.269,19.115 35.269,25.733 C35.269,31.966 35.6,37.031 35.269,39.762 C31.983,42.101 15.915,54.173 11.663,56.904 C18.865,56.904 31.336,56.904 35.269,56.904 C35.269,62.351 35.269,92.014 35.269,97.858 C35.269,103.701 41.170,112.882 47.079,112.5 C56.258,112.5 135.947,112.5 146.772,112.5 C154.966,112.5 158.25,106.687 158.25,98.5 C158.25,91.106 158.25,31.576 158.25,25.346 C158.574,17.951 152.673,11.330 146.113,11.330 C140.866,11.330 53.633,11.330 47.079,11.330 Z"
 style="stroke-width:2;stroke:rgb(187,187,0);fill:none;" />
<path d="M46 10 C38.331,10 34,17.973 34,24.764 C34,31.149 34.331,36.341 34,39.134 C30.663,41.529 14.330,53.899 10,56.697 C17.329,56.697 30,56.697 34,56.697 C34,62.283 34,92.678 34,98.666 C34,104.649 40,114.062 46,113.666 C55.331,113.666 136.332,113.666 147.332,113.666 C155.666,113.666 159,107.702 159,99.332 C159,91.749 159,30.75 159,24.358 C159.332,16.783 153.332,10 146.666,10 C141.332,10 52.666,10 46,10 Z"
 style="stroke:rgb(103,103,103);fill:none;" />
<polyline points="46.331 24.5, 147.332 24.5, 147.332 103.5, 46.331 103.5, 46.331 24.5"
 style="stroke:rgb(0,0,0);fill:none;" />
<g id="appdata_0_0_0_0_1" />
</svg>
