<?xml version="1.0" encoding="UTF-8"?>
<!DOCTYPE svg PUBLIC "-//W3C//DTD SVG 20010904//EN"
 "http://www.w3.org/TR/2001/REC-SVG-20010904/DTD/svg10.dtd">
<svg width="127px" height="114px">
<path d="M116.567 70.362 C113.699,78.332 108.207,80.850 101.899,82.332 C95.593,82.332 88.461,82.404 85.699,82.729 C83.339,86.029 73.663,97.062 70.899,101.332 C70.899,94.103 71.5,86.545 71.5,82.6 C65.986,82.6 35.003,83 29.1,83 C23.187,83 13.824,76.298 14.207,70.362 C14.207,61.154 13.067,37.850 13.067,26.997 C13.067,18.770 17.788,13.997 26.067,13.997 C33.555,13.997 95.757,13.663 102.067,13.663 C109.541,13.340 116.733,20.09 116.733,26.663 C116.733,31.937 116.567,63.783 116.567,70.362 Z"
 style="stroke-width:3;stroke:rgb(128,128,128);stroke-opacity:0.2;fill:none;" />
<path d="M114.408 69.179 C112.5,76.729 106.3,80.199 99.3,81.199 C93.021,81.199 87.047,80.807 84.3,81.132 C81.949,84.413 72.449,96.287 69.699,100.531 C69.699,93.363 68.3,84.725 68.3,80.8 C62.804,80.8 33.181,81.199 27.3,81.199 C21.407,81.199 12.086,75.065 12.470,69.179 C12.470,60.022 11.765,37.983 11.765,27.197 C11.765,19.021 15.519,12.860 23.765,12.860 C31.216,12.860 95.149,12.860 101.433,12.860 C109.098,13.197 114.433,18.989 114.433,25.531 C114.433,30.764 114.408,62.641 114.408,69.179 Z"
 style="stroke-width:3;stroke:rgb(128,128,128);stroke-opacity:0.500;fill:none;" />
<path d="M113.668 67.507 C113.668,75.249 105.695,79.620 98.904,79.620 C92.519,79.620 87.324,79.283 84.537,79.620 C82.139,82.983 69.766,99.466 66.967,103.832 C66.967,96.437 66.967,83.656 66.967,79.620 C61.383,79.620 30.983,79.620 25,79.620 C19.014,79.620 9.6,73.562 10,67.507 C10,58.095 11.668,34.377 11.668,23.278 C11.668,14.872 17.629,11.169 26,11.169 C33.580,11.169 95.274,10.831 101.668,10.831 C109.239,10.495 113.332,17.562 113.332,24.288 C113.332,29.668 113.668,60.781 113.668,67.507 Z"
 style="stroke-width:0;fill:rgb(255,255,128);" />
<path d="M111.793 66.446 C111.793,73.941 104.103,78.187 97.570,78.187 C91.416,78.187 86.413,77.856 83.719,78.187 C81.408,81.437 69.484,97.406 66.793,101.625 C66.793,94.479 66.793,82.098 66.793,78.187 C61.408,78.187 32.115,78.187 26.351,78.187 C20.576,78.187 11.512,72.312 11.889,66.446 C11.889,57.329 11.677,33.230 11.677,22.483 C11.677,14.341 16.346,12.081 24.425,12.081 C31.733,12.081 96.778,12.081 102.945,12.081 C110.235,11.764 111.668,17.644 111.668,24.161 C111.668,29.382 111.793,59.928 111.793,66.446 Z"
 style="stroke-width:3;stroke:rgb(236,236,0);fill:none;" />
<path d="M112.875 66.841 C112.875,74.445 105.058,78.745 98.416,78.745 C92.158,78.745 87.074,78.416 84.332,78.745 C81.983,82.057 69.858,98.257 67.119,102.543 C67.119,95.283 67.119,82.713 67.119,78.745 C61.649,78.745 31.865,78.745 26.002,78.745 C20.137,78.745 10.914,72.793 11.3,66.841 C11.3,57.584 10.925,31.576 10.925,20.663 C10.925,12.403 17.432,10.579 25.653,10.579 C33.079,10.579 97.041,10.916 103.290,10.916 C110.464,10.960 113.002,17.414 113.002,24.022 C113.002,29.316 112.875,60.230 112.875,66.841 Z"
 style="stroke-width:2;stroke:rgb(187,187,0);fill:none;" />
<path d="M113.668 67.832 C113.668,75.5 105.695,79.832 98.904,79.832 C92.519,79.832 87.324,79.5 84.537,79.832 C82.139,83.168 69.766,99.5 66.967,103.832 C66.967,96.5 66.967,83.832 66.967,79.832 C61.383,79.832 30.983,79.832 25,79.832 C19.014,79.832 9.6,73.832 10,67.832 C10,58.5 10,32 10,21 C10,12.663 15.957,10 24.331,10 C31.913,10 94.274,10 100.668,10 C108.239,9.665 114.002,15 114.002,21.663 C114.002,27 113.668,61.166 113.668,67.832 Z"
 style="stroke:rgb(103,103,103);fill:none;" />
<polyline points="20.262 67.166, 20.262 22, 101.262 22, 101.262 67.166, 20.262 67.166"
 style="stroke:rgb(0,0,0);fill:none;" />
<g id="appdata_0_0_0_0_1" />
</svg>
