<?xml version="1.0" encoding="UTF-8"?>
<!DOCTYPE svg PUBLIC "-//W3C//DTD SVG 20010904//EN"
 "http://www.w3.org/TR/2001/REC-SVG-20010904/DTD/svg10.dtd">
<svg width="130px" height="135px">
<polygon points="100.666 85.166, 100.666 105.666, 113.332 107.117, 94.332 124.374, 72.016 106.29, 82.233 106.29, 83 86.166, 12.330 85.832, 11 12.5, 119.666 12.5, 119.666 84.832"
 style="stroke-width:0;fill:rgb(128,128,128);fill-opacity:0.500;" />
<polygon points="99 83, 99.231 103.832, 112.673 103.832, 91.35 123.332, 70.016 103.832, 80.233 103.832, 81 84, 10 83.332, 10.330 10.330, 117.666 10, 117.666 82.666"
 style="stroke-width:0;fill:rgb(255,255,128);" />
<polygon points="97.332 81.666, 98.332 105.332, 110.082 105.084, 91.832 121.570, 73.570 105.332, 81.832 105.332, 81.332 83, 10.663 83, 11 11.330, 116.666 11.330, 116.666 82"
 style="stroke-width:2;stroke:rgb(187,187,0);fill:none;" />
<polygon points="96.666 79.666, 96.206 105.457, 106.695 105.695, 91.206 120.695, 74.457 105.695, 82.957 105.206, 82.332 81.332, 12 81.332, 12.330 13, 115 12.663, 115 80"
 style="stroke:rgb(238,238,0);fill:none;" />
<polygon points="98.666 83, 98.495 104, 112.336 104, 91.013 123.5, 69.678 104, 80.495 104, 80.666 83.666, 10 83.666, 10 10, 117.666 10, 117.666 83"
 style="stroke:rgb(0,0,0);fill:none;" />
<polyline points="105.19 72.117, 105.5 21, 21.412 21, 21.412 72.332, 105.19 72.332"
 style="stroke:rgb(0,0,0);fill:none;" />
<g id="appdata_0_0_1_0_1" />
</svg>
