<?xml version="1.0" encoding="UTF-8"?>
<!DOCTYPE svg PUBLIC "-//W3C//DTD SVG 20010904//EN"
 "http://www.w3.org/TR/2001/REC-SVG-20010904/DTD/svg10.dtd">
<svg width="173px" height="127px">
<path d="M50.920 116.666 C43.362,116.666 39.093,109.119 39.093,102.698 C39.093,96.656 39.417,91.75 39.093,89.1 C35.799,86.833 19.257,76.058 15,73.408 C22.212,73.408 35.225,73.408 39.165,73.408 C39.165,68.130 39.093,38.437 39.093,32.782 C39.093,27.113 44.993,18.208 50.920,18.575 C60.114,18.575 139.913,18.575 150.751,18.575 C158.959,18.575 162.25,24.214 162.25,32.146 C162.25,39.318 162.25,97.034 162.25,103.079 C160.75,110.166 156.75,114.916 150.095,116.666 C144.833,116.666 57.485,116.666 50.920,116.666 Z"
 style="stroke-width:3;stroke:rgb(128,128,128);stroke-opacity:0.2;fill:none;" />
<path d="M49.220 115.166 C41.705,115.166 37.458,107.713 37.458,101.367 C37.458,95.398 37.783,90.547 37.458,87.932 C34.177,85.690 18.175,74.122 13.937,71.508 C21.096,71.508 33.538,71.508 37.458,71.508 C37.458,66.283 37.458,37.866 37.458,32.269 C37.458,26.670 43.338,17.869 49.220,18.236 C58.371,18.236 137.775,18.236 148.558,18.236 C156.727,18.236 160,23.808 160,31.652 C160,38.735 160,95.767 160,101.742 C158.75,109.166 154.75,113.416 147.905,115.166 C142.670,115.166 55.758,115.166 49.220,115.166 Z"
 style="stroke-width:3;stroke:rgb(128,128,128);stroke-opacity:0.500;fill:none;" />
<path d="M46 113.666 C38.331,113.666 34,105.692 34,98.900 C34,92.516 34.331,87.324 34,84.531 C30.663,82.137 14.330,69.766 10,66.968 C17.329,66.968 30,66.968 34,66.968 C34,61.382 34,30.987 34,25 C34,19.016 40,9.602 46,10 C55.331,10 136.332,10 147.332,10 C155.666,10 159,15.962 159,24.334 C159,31.916 159,92.916 159,99.308 C159.332,106.882 153.332,113.666 146.666,113.666 C141.332,113.666 52.666,113.666 46,113.666 Z"
 style="stroke-width:0;fill:rgb(255,255,128);" />
<path d="M47.449 111.416 C40.004,111.416 35.788,103.779 35.788,97.282 C35.788,91.175 36.115,86.205 35.788,83.525 C32.557,81.233 16.691,69.387 12.5,66.713 C19.6,66.713 31.906,66.713 35.788,66.713 C35.788,61.362 35.788,32.262 35.788,26.533 C35.788,20.8 41.620,11.790 47.449,12.165 C56.508,12.165 135.157,12.165 145.832,12.165 C153.925,12.165 157.166,17.866 157.166,25.896 C157.166,33.154 157.166,91.55 157.166,97.675 C157.483,104.920 151.661,111.416 145.187,111.416 C140.003,111.416 53.925,111.416 47.449,111.416 Z"
 style="stroke-width:3;stroke:rgb(236,236,0);fill:none;" />
<path d="M47.079 112.335 C39.533,112.335 35.269,104.55 35.269,97.933 C35.269,91.699 35.6,86.633 35.269,83.904 C31.983,81.565 15.914,69.492 11.663,66.762 C18.865,66.762 31.336,66.762 35.269,66.762 C35.269,61.314 35.269,31.650 35.269,25.807 C35.269,19.964 41.170,10.783 47.079,11.165 C56.258,11.165 135.947,11.165 146.772,11.165 C154.966,11.165 158.25,16.977 158.25,25.165 C158.25,32.560 158.25,92.088 158.25,98.320 C158.574,105.713 152.673,112.335 146.113,112.335 C140.866,112.335 53.633,112.335 47.079,112.335 Z"
 style="stroke-width:2;stroke:rgb(187,187,0);fill:none;" />
<path d="M46 113.666 C38.331,113.666 34,105.692 34,98.900 C34,92.516 34.331,87.324 34,84.531 C30.663,82.137 14.330,69.766 10,66.968 C17.329,66.968 30,66.968 34,66.968 C34,61.382 34,30.987 34,25 C34,19.016 40,9.602 46,10 C55.331,10 136.332,10 147.332,10 C155.666,10 159,15.962 159,24.334 C159,31.916 159,92.916 159,99.308 C159.332,106.882 153.332,113.666 146.666,113.666 C141.332,113.666 52.666,113.666 46,113.666 Z"
 style="stroke:rgb(103,103,103);fill:none;" />
<polyline points="46.331 21.165, 147.332 21.165, 147.332 100.166, 46.331 100.166, 46.331 21.165"
 style="stroke:rgb(0,0,0);fill:none;" />
<g id="appdata_0_0_0_0_1" />
</svg>
