<?xml version="1.0" encoding="UTF-8"?>
<!DOCTYPE svg PUBLIC "-//W3C//DTD SVG 20010904//EN"
 "http://www.w3.org/TR/2001/REC-SVG-20010904/DTD/svg10.dtd">
<svg width="172px" height="127px">
<path d="M121.519 13.889 C129.087,13.889 133.364,21.764 133.364,28.465 C133.364,34.770 133.039,39.889 133.364,42.655 C136.664,45.019 153.235,56.264 157.5,59.029 C150.274,59.029 137.239,59.029 133.292,59.029 C133.292,64.538 133.364,95.520 133.364,101.425 C133.364,107.341 127.454,116.632 121.519,116.25 C112.308,116.25 32.374,116.25 21.516,116.25 C13.293,116.25 10,110.364 10,102.086 C10,94.602 10,34.375 10,28.067 C9.678,20.591 15.595,13.889 22.173,13.889 C27.445,13.889 114.941,13.889 121.519,13.889 Z"
 style="stroke-width:3;stroke:rgb(128,128,128);stroke-opacity:0.2;fill:none;" />
<path d="M122.827 12.812 C130.344,12.812 134.592,20.647 134.592,27.322 C134.592,33.600 134.268,38.703 134.592,41.453 C137.875,43.810 153.883,55.974 158.125,58.724 C150.961,58.724 138.515,58.724 134.592,58.724 C134.592,64.220 134.592,94.106 134.592,99.991 C134.592,105.880 128.710,115.134 122.827,114.75 C113.670,114.75 34.234,114.75 23.445,114.75 C15.273,114.75 12,108.889 12,100.641 C12,93.191 12,33.210 12,26.926 C11.683,19.478 17.561,12.812 24.1,12.812 C29.336,12.812 116.286,12.812 122.827,12.812 Z"
 style="stroke-width:3;stroke:rgb(128,128,128);stroke-opacity:0.500;fill:none;" />
<path d="M125.5 10 C133.168,10 137.5,17.973 137.5,24.764 C137.5,31.149 137.168,36.341 137.5,39.134 C140.836,41.529 157.169,53.899 161.5,56.697 C154.171,56.697 141.5,56.697 137.5,56.697 C137.5,62.283 137.5,92.678 137.5,98.666 C137.5,104.649 131.5,114.062 125.5,113.666 C116.168,113.666 35.168,113.666 24.168,113.666 C15.833,113.666 12.5,107.702 12.5,99.332 C12.5,91.749 12.5,30.75 12.5,24.358 C12.168,16.783 18.168,10 24.833,10 C30.168,10 118.833,10 125.5,10 Z"
 style="stroke-width:0;fill:rgb(255,255,128);" />
<path d="M124.05 12.25 C131.495,12.25 135.711,19.887 135.711,26.383 C135.711,32.490 135.385,37.460 135.711,40.139 C138.941,42.432 154.808,54.277 159,56.952 C151.899,56.952 139.593,56.952 135.711,56.952 C135.711,62.300 135.711,91.403 135.711,97.132 C135.711,102.865 129.880,111.875 124.05,111.5 C114.991,111.5 36.342,111.5 25.668,111.5 C17.574,111.5 14.334,105.798 14.334,97.769 C14.334,90.512 14.334,32.115 14.334,25.990 C14.016,18.745 19.839,12.25 26.312,12.25 C31.496,12.25 117.574,12.25 124.05,12.25 Z"
 style="stroke-width:3;stroke:rgb(236,236,0);fill:none;" />
<path d="M124.420 11.330 C131.966,11.330 136.231,19.115 136.231,25.733 C136.231,31.966 135.899,37.031 136.231,39.762 C139.516,42.101 155.584,54.173 159.836,56.904 C152.634,56.904 140.164,56.904 136.231,56.904 C136.231,62.351 136.231,92.014 136.231,97.858 C136.231,103.701 130.329,112.882 124.420,112.5 C115.241,112.5 35.553,112.5 24.727,112.5 C16.533,112.5 13.25,106.687 13.25,98.5 C13.25,91.106 13.25,31.575 13.25,25.346 C12.925,17.95 18.827,11.330 25.387,11.330 C30.633,11.330 117.866,11.330 124.420,11.330 Z"
 style="stroke-width:2;stroke:rgb(187,187,0);fill:none;" />
<path d="M125.5 10 C133.168,10 137.5,17.973 137.5,24.764 C137.5,31.149 137.168,36.341 137.5,39.134 C140.836,41.529 157.169,53.899 161.5,56.697 C154.171,56.697 141.5,56.697 137.5,56.697 C137.5,62.283 137.5,92.678 137.5,98.666 C137.5,104.649 131.5,114.062 125.5,113.666 C116.168,113.666 35.168,113.666 24.168,113.666 C15.833,113.666 12.5,107.702 12.5,99.332 C12.5,91.749 12.5,30.75 12.5,24.358 C12.168,16.783 18.168,10 24.833,10 C30.168,10 118.833,10 125.5,10 Z"
 style="stroke:rgb(103,103,103);fill:none;" />
<polyline points="125.168 24.5, 24.168 24.5, 24.168 103.5, 125.168 103.5, 125.168 24.5"
 style="stroke:rgb(0,0,0);fill:none;" />
<g id="appdata_0_0_0_0_1" />
</svg>
