<?xml version="1.0" encoding="UTF-8"?>
<!DOCTYPE svg PUBLIC "-//W3C//DTD SVG 20010904//EN"
 "http://www.w3.org/TR/2001/REC-SVG-20010904/DTD/svg10.dtd">
<svg width="132px" height="172px">
<polygon points="101.949 64.458, 101.949 31.366, 115.391 31.366, 94.067 11.866, 72.733 31.366, 82.958 31.366, 82.958 64.458, 12.05 64.366, 12.05 161.366, 121.05 161.366, 121.05 64.366"
 style="stroke-width:0;fill:rgb(128,128,128);fill-opacity:0.500;" />
<polygon points="99.899 62.758, 99.899 29.668, 113.341 29.668, 92.017 10.168, 70.684 29.668, 80.909 29.668, 80.909 62.758, 10 62.668, 10 159.668, 119 159.668, 119 62.668"
 style="stroke-width:0;fill:rgb(255,255,128);" />
<polygon points="98.75 63.917, 99 28.168, 110.75 28.417, 92.5 11.917, 74.25 28.168, 82.5 28.168, 82.5 63.917, 11.75 63.917, 11.75 157.917, 117.75 157.917, 117.75 63.917"
 style="stroke-width:2;stroke:rgb(187,187,0);fill:none;" />
<polygon points="96.875 65.292, 96.875 28.043, 107.375 27.793, 91.875 12.793, 75.125 27.793, 83.625 28.292, 83.625 65.543, 12.625 65.793, 12.875 156.793, 116.125 157.043, 115.625 65.543"
 style="stroke-width:2;stroke:rgb(238,238,0);fill:none;" />
<polygon points="99.163 62.5, 99.163 29.5, 113.005 29.5, 91.680 10, 70.347 29.5, 81.163 29.5, 81.163 62.5, 10.580 62.666, 10.580 159.332, 118.25 159.332, 118.25 62.666"
 style="stroke:rgb(0,0,0);fill:none;" />
<polyline points="108.105 72.900, 108.417 149.250, 22.081 149.250, 22.081 72.583, 108.105 72.583"
 style="stroke:rgb(0,0,0);fill:none;" />
<g id="appdata_0_0_0_0_1" />
</svg>
