<?xml version="1.0" encoding="UTF-8"?>
<!DOCTYPE svg PUBLIC "-//W3C//DTD SVG 20010904//EN"
 "http://www.w3.org/TR/2001/REC-SVG-20010904/DTD/svg10.dtd">
<svg width="201px" height="160px">
<path d="M89.298 10 C145.700,10 169.298,31.9 169.298,57.8 C169.298,93.9 128.999,109.700 89.298,109.700 C49.699,109.700 10,95.9 10,59.9 C10,23.8 49.699,10 89.298,10 Z"
 style="stroke:rgb(0,0,0);fill:rgb(0,255,64);" />
<path d="M162.799 103.1 C172.799,103.1 176.999,107.6 176.999,113 C176.999,120.5 169.799,123.8 162.799,123.8 C155.700,123.8 148.700,121 148.700,113.5 C148.700,106 155.700,103.1 162.799,103.1 Z"
 style="stroke:rgb(0,0,0);fill:rgb(0,255,64);" />
<path d="M180.6 133.4 C187.2,133.4 190.1,136.9 190.1,141.1 C190.1,146.9 185.298,149.4 180.6,149.4 C175.9,149.4 171.2,147.2 171.2,141.4 C171.2,135.6 175.9,133.4 180.6,133.4 Z"
 style="stroke:rgb(0,0,0);fill:rgb(0,255,64);" />
<polyline points="146.298 26.4, 36 26.4, 36 92.2, 146.298 92.2, 146.298 26.4"
 style="stroke:rgb(0,0,0);fill:none;" />
<g id="appdata_0_0_0_0_0" />
</svg>
