<?xml version="1.0" encoding="UTF-8"?>
<!DOCTYPE svg PUBLIC "-//W3C//DTD SVG 20010904//EN"
 "http://www.w3.org/TR/2001/REC-SVG-20010904/DTD/svg10.dtd">
<svg width="201px" height="160px">
<path d="M89.9 149.399 C146.8,149.399 170.700,127.5 170.700,101.6 C170.700,65.5 129.899,49.699 89.9,49.699 C49.9,49.699 10,63.5 10,99.5 C10,135.6 49.9,149.399 89.9,149.399 Z"
 style="stroke:rgb(0,0,0);fill:rgb(0,255,64);" />
<path d="M162.700 56.3 C172.700,56.3 176.899,51.8 176.899,46.4 C176.899,38.9 169.700,35.599 162.700,35.599 C155.6,35.599 148.6,38.4 148.6,45.9 C148.6,53.4 155.6,56.3 162.700,56.3 Z"
 style="stroke:rgb(0,0,0);fill:rgb(0,255,64);" />
<path d="M180.5 26 C187.1,26 190,22.5 190,18.3 C190,12.5 185.2,10 180.5,10 C175.8,10 171.1,12.199 171.1,18 C171.1,23.8 175.8,26 180.5,26 Z"
 style="stroke:rgb(0,0,0);fill:rgb(0,255,64);" />
<polyline points="146.2 133, 35.9 133, 35.9 67.199, 146.2 67.199, 146.2 133"
 style="stroke:rgb(0,0,0);fill:none;" />
<g id="appdata_0_0_0_0_0" />
</svg>
