<?xml version="1.0" encoding="UTF-8"?>
<!DOCTYPE svg PUBLIC "-//W3C//DTD SVG 20010904//EN"
 "http://www.w3.org/TR/2001/REC-SVG-20010904/DTD/svg10.dtd">
<svg width="240px" height="180px">
<path d="M235.676 70.541 C235.676,73.662 216.810,61.021 216.810,64.922 C216.810,77.644 216.842,131.206 216.842,146.859 C216.843,161.793 206.566,168.104 193.551,167.929 C177.941,167.718 149.571,167.929 112.029,167.929 C93.390,167.929 41.85,167.769 24.341,167.929 C18.117,167.985 9.269,162.466 9.269,146.859 C9.269,126.462 9.269,112.134 9.269,87.553 C9.269,68.824 9.269,49.208 9.269,24.343 C9.269,16.540 18.302,9.729 23.783,9.729 C36.714,9.729 113.153,9.729 141.982,9.729 C155.929,9.729 171.402,8.837 235.676,70.541 Z"
 style="stroke:rgb(128,128,128);fill:rgb(128,128,128);" />
<path d="M114.191 4.743 C140.649,4.743 175.781,4.743 199.823,4.743 C210.099,4.743 219.016,12.070 219.005,25.033 C219,30.866 218.971,31.276 218.971,39.079 C218.971,40.640 237.837,65.766 237.837,68.108 C237.837,71.230 218.971,58.587 218.971,62.490 C218.971,75.210 219.005,128.775 219.005,144.426 C219.006,159.359 208.729,165.672 195.712,165.496 C180.104,165.286 151.733,165.496 114.191,165.496 C95.553,165.496 44.011,165.337 26.503,165.496 C20.281,165.554 11.430,160.034 11.430,144.426 C11.430,124.03 11.430,109.700 11.430,85.119 C11.430,66.391 11.430,46.777 11.430,21.912 C11.430,14.108 21.706,4.743 27.187,4.743 C42.684,4.743 80.935,4.743 114.191,4.743 Z"
 style="stroke:rgb(0,0,0);fill:rgb(255,255,128);" />
<polyline points="209.29 17.179, 19.932 17.179, 19.932 154.692, 209.29 154.692, 209.29 17.179"
 style="stroke:rgb(0,0,0);fill:none;" />
<g id="appdata_1_0_0_0_0" />
</svg>
