<?xml version="1.0" encoding="UTF-8"?>
<!DOCTYPE svg PUBLIC "-//W3C//DTD SVG 20010904//EN"
 "http://www.w3.org/TR/2001/REC-SVG-20010904/DTD/svg10.dtd">
<svg width="240px" height="180px">
<path d="M24.504 43.783 C24.504,45.343 4.324,68.199 4.324,70.541 C4.324,73.662 23.19,61.021 23.19,64.922 C23.19,77.644 23.157,131.206 23.157,146.859 C23.156,161.793 33.433,168.104 46.449,167.929 C62.058,167.718 90.428,167.929 127.970,167.929 C146.609,167.929 198.15,167.769 215.658,167.929 C221.882,167.985 230.730,162.466 230.730,146.859 C230.730,126.462 230.730,112.134 230.730,87.553 C230.730,68.824 230.730,49.208 230.730,24.343 C230.730,16.540 213.769,10.541 208.287,10.541 C192.791,10.541 162.541,9.448 24.504,43.783 Z"
 style="stroke:rgb(128,128,128);fill:rgb(128,128,128);" />
<path d="M125.808 4.743 C99.350,4.743 64.218,4.743 40.177,4.743 C29.900,4.743 20.983,12.070 20.994,25.033 C21,30.866 21.028,31.276 21.028,39.079 C21.028,40.640 2.162,65.766 2.162,68.108 C2.162,71.230 21.028,58.587 21.028,62.490 C21.028,75.210 20.994,128.775 20.994,144.426 C20.993,159.359 31.270,165.672 44.286,165.496 C59.896,165.286 88.266,165.496 125.808,165.496 C144.446,165.496 195.987,165.337 213.496,165.496 C219.718,165.554 228.568,160.034 228.568,144.426 C228.568,124.03 228.568,109.700 228.568,85.119 C228.568,66.391 228.568,46.777 228.568,21.912 C228.568,14.108 218.292,4.743 212.812,4.743 C197.316,4.743 159.065,4.743 125.808,4.743 Z"
 style="stroke:rgb(0,0,0);fill:rgb(255,255,128);" />
<polyline points="30.709 17.179, 220.068 17.179, 220.068 154.692, 30.709 154.692, 30.709 17.179"
 style="stroke:rgb(0,0,0);fill:none;" />
<g id="appdata_1_0_0_0_0" />
</svg>
