<?xml version="1.0" encoding="UTF-8"?>
<!DOCTYPE svg PUBLIC "-//W3C//DTD SVG 20010904//EN"
 "http://www.w3.org/TR/2001/REC-SVG-20010904/DTD/svg10.dtd">
<svg width="240px" height="180px">
<path d="M134.412 14.593 C77.836,14.593 54.054,36.484 54.054,62.432 C54.054,98.514 94.593,114.324 134.412,114.324 C174.234,114.324 214.054,100.541 214.054,64.458 C214.054,28.378 174.234,14.593 134.412,14.593 Z"
 style="stroke:rgb(0,0,0);fill:rgb(0,255,64);" />
<path d="M61.325 107.7 C51.310,107.7 47.102,112.245 47.102,117.636 C47.102,125.130 54.277,128.412 61.325,128.412 C68.371,128.412 75.420,125.551 75.420,118.057 C75.420,110.562 68.371,107.7 61.325,107.7 Z"
 style="stroke:rgb(0,0,0);fill:rgb(0,255,0);" />
<path d="M43.525 137.991 C36.85,137.991 34.042,141.512 34.042,145.685 C34.042,151.487 38.826,154.029 43.525,154.029 C48.225,154.029 52.923,151.812 52.923,146.01 C52.923,140.210 48.225,137.991 43.525,137.991 Z"
 style="stroke:rgb(0,0,0);fill:rgb(0,255,64);" />
<polyline points="77.770 30.954, 188.079 30.954, 188.079 96.829, 77.770 96.829, 77.770 30.954"
 style="stroke:rgb(0,0,0);fill:none;" />
<g id="appdata_1_0_0_0_0" />
</svg>
