<?xml version="1.0" encoding="UTF-8"?>
<!DOCTYPE svg PUBLIC "-//W3C//DTD SVG 20010904//EN"
 "http://www.w3.org/TR/2001/REC-SVG-20010904/DTD/svg10.dtd">
<svg width="240px" height="180px">
<path d="M134.413 165.405 C77.837,165.405 54.054,143.514 54.054,117.567 C54.054,81.485 94.594,65.676 134.413,65.676 C174.234,65.676 214.054,79.458 214.054,115.541 C214.054,151.621 174.234,165.405 134.413,165.405 Z"
 style="stroke:rgb(0,0,0);fill:rgb(0,255,64);" />
<path d="M61.325 72.298 C51.310,72.298 47.102,67.753 47.102,62.363 C47.102,54.869 54.277,51.585 61.325,51.585 C68.372,51.585 75.420,54.449 75.420,61.942 C75.420,69.437 68.372,72.298 61.325,72.298 Z"
 style="stroke:rgb(0,0,0);fill:rgb(0,255,64);" />
<path d="M43.525 42.007 C36.85,42.007 34.043,38.487 34.043,34.314 C34.043,28.512 38.827,25.970 43.525,25.970 C48.225,25.970 52.923,28.187 52.923,33.989 C52.923,39.790 48.225,42.007 43.525,42.007 Z"
 style="stroke:rgb(0,0,0);fill:rgb(0,255,64);" />
<polyline points="77.770 149.043, 188.079 149.043, 188.079 83.169, 77.770 83.169, 77.770 149.043"
 style="stroke:rgb(0,0,0);fill:none;" />
<g id="appdata_1_0_0_0_0" />
</svg>
