<?xml version="1.0" encoding="utf-8"?>
<!-- Generator: Adobe Illustrator 14.0.0, SVG Export Plug-In . SVG Version: 6.00 Build 43363)  -->
<!DOCTYPE svg PUBLIC "-//W3C//DTD SVG 1.1//EN" "http://www.w3.org/Graphics/SVG/1.1/DTD/svg11.dtd">
<svg version="1.1"
	 id="svg2" sodipodi:docname="background.svg" xmlns:svg="http://www.w3.org/2000/svg" xmlns:cc="http://creativecommons.org/ns#" sodipodi:version="0.32" xmlns:inkscape="http://www.inkscape.org/namespaces/inkscape" xmlns:sodipodi="http://sodipodi.sourceforge.net/DTD/sodipodi-0.dtd" xmlns:rdf="http://www.w3.org/1999/02/22-rdf-syntax-ns#" xmlns:dc="http://purl.org/dc/elements/1.1/" inkscape:version="0.46" inkscape:output_extension="org.inkscape.output.svg.inkscape"
	 xmlns="http://www.w3.org/2000/svg" xmlns:xlink="http://www.w3.org/1999/xlink" x="0px" y="0px" width="1280px" height="800px"
	 viewBox="0 0 1280 800" enable-background="new 0 0 1280 800" xml:space="preserve">
<rect y="1" fill="#5A2848" width="1280" height="799"/>
<sodipodi:namedview  id="base" borderopacity="1.0" showgrid="false" inkscape:window-y="320" inkscape:window-x="474" objecttolerance="10.0" inkscape:window-width="1440" guidetolerance="10.0" gridtolerance="10.0" showguides="true" inkscape:pageshadow="2" inkscape:pageopacity="0.0" bordercolor="#666666" pagecolor="#ffffff" inkscape:window-height="854" inkscape:zoom="0.60561345" inkscape:guide-bbox="true" inkscape:cy="444.06756" inkscape:current-layer="svg2" inkscape:cx="546.80586">
	<inkscape:grid  type="xygrid" enabled="true" visible="true" id="grid9036"></inkscape:grid>
</sodipodi:namedview>
<defs>
	
	
		<inkscape:perspective  id="perspective101" sodipodi:type="inkscape:persp3d" inkscape:vp_y="0 : 1000 : 0" inkscape:vp_z="700 : 600 : 1" inkscape:vp_x="-50 : 600 : 1" inkscape:persp3d-origin="300 : 400 : 1">
		</inkscape:perspective>
</defs>
<radialGradient id="path5622_1_" cx="1297.4424" cy="1404.8965" r="410.7796" gradientTransform="matrix(-0.2621 0.3059 -0.3243 -0.277 1567.0542 59.0548)" gradientUnits="userSpaceOnUse">
	<stop  offset="0" style="stop-color:#FFFFFF"/>
	<stop  offset="1" style="stop-color:#FFFFFF;stop-opacity:0"/>
</radialGradient>
<path id="path5622" opacity="0.5233" fill="url(#path5622_1_)" enable-background="new    " d="M851.179,160.201
	c16.979-10.794,30.479-26.638,37.316-47.813c4.633-14.349,4.571-31.586-0.778-46.278c-5.351-14.691-16.029-26.85-32.611-30.869
	c-6.666-1.616-14.803-1.129-21.59,1.741c-6.788,2.871-12.252,8.182-13.384,16.145c-0.368,2.586,0.06,5.842,1.392,8.493l0.102-0.063
	c-1.248-2.483-1.427-5.906-1.084-8.318c1.092-7.672,6.667-12.747,13.28-15.544c6.611-2.796,14.604-3.289,21.098-1.714
	c16.312,3.954,25.333,17.013,30.618,31.525c5.285,14.513,4.84,29.971,0.263,44.147c-9.862,30.548-33.398,45.112-61.562,54.208
	c-28.162,9.097-56.562,5.022-83.703-5.307c-52.444-19.958-78.498-57.039-92.859-106.695c-14.361-49.655-8.189-98.56,12.271-145.899
	c23.479-54.328,62.328-91.059,109.305-113.634c-23.63,22.785-38.896,53.327-38.216,88.12c0.366,18.692,6.554,37.846,17.217,53.463
	c0.344,0.503,0.692,0.992,1.046,1.488c1.614,2.269,3.331,4.471,5.135,6.569c14.428,16.781,34.754,27.676,58.78,26.145
	c12.455-0.794,25.346-6.136,34.741-14.693c9.395-8.558,15.286-20.354,13.697-34.055c-0.74-6.382-3.798-13.063-8.479-17.815
	c-4.681-4.752-10.3-6.479-17.456-5.109c-2.877,0.551-5.94,2.183-8.07,4.495c-2.131,2.312-2.552,4.839-1.581,8.127
	c0.314,1.068,1.068,2.263,2.056,3.055l0.028-0.045c-0.925-0.743-1.61-2.042-1.903-3.038c-0.935-3.167-0.448-5.621,1.626-7.874
	c2.075-2.252,5.107-3.856,7.909-4.393c7.04-1.348,12.157,1.007,16.781,5.701c4.624,4.694,7.184,10.791,7.914,17.097
	c1.575,13.589-4.989,23.379-14.324,31.881c-9.334,8.502-21.099,11.954-33.476,12.743c-23.916,1.524-40.594-8.261-54.968-24.98
	c-14.373-16.719-20.637-36.778-21.067-58.75c-1.209-61.765,52.063-98.907,109.718-112.03c62.458-10.548,131.001-4.071,194.072,14.04
	l-8.256-39.391c-130.104-37.361-285.734,1.722-361.702,116.008c-8.03,6.849-16.918,14.436-26.223,22.104
	c-40.485,32.015-86.186,50.685-137.954,49.735c-51.768-0.95-94.377-16.466-127.305-61.837
	c-17.041-23.48-28.376-49.766-26.889-79.274c1.488-29.509,9.45-56.001,36.442-73.441c12.526-8.093,27.385-12.55,42.797-11.225
	c23.939,1.668,43.939,17.179,42.271,42.132c-0.988,7.101-4.458,13.786-11.598,16.83c-2.244,0.958-5.61,1.694-8.338,1.136
	l-0.021,0.099c2.909,0.596,6.183,0.156,8.589-0.87c7.409-3.16,11.096-9.807,12.108-17.095c2.375-26.492-18.178-40.716-42.234-44.693
	c-15.603-1.342-32.307,3.106-44.986,11.298c-27.216,17.585-39.816,45.807-41.313,75.507c-1.497,29.7,8.09,60.91,25.239,84.539
	c33.08,45.58,83.176,65.933,135.136,66.886c6.495,0.119,13.03-0.045,19.555-0.521c1.428-0.104,2.843-0.231,4.27-0.363
	c43.941-4.066,87.592-21.252,121.932-48.183c-1.358,2.859-2.682,5.747-3.949,8.681c-17.406,40.273-22.835,87.153-15.31,130.852
	c0.243,1.41,0.497,2.799,0.767,4.202c1.233,6.413,2.743,12.754,4.545,18.983c14.414,49.839,47.146,92.852,99.832,112.902
	c27.313,10.394,59.983,11.508,88.327,2.352C835.02,168.957,843.461,165.107,851.179,160.201z"/>
<radialGradient id="path5624_1_" cx="26.3887" cy="457.75" r="411.7912" gradientTransform="matrix(0.4727 0.4207 0.446 -0.5776 377.769 382.6786)" gradientUnits="userSpaceOnUse">
	<stop  offset="0" style="stop-color:#FFFFFF"/>
	<stop  offset="1" style="stop-color:#FFFFFF;stop-opacity:0"/>
</radialGradient>
<path id="path5624" sodipodi:nodetypes="csssssccssssssssscsssssssssssccsssssssssccccsssssccsccsccsssssscssssssc" opacity="0.5233" fill="url(#path5624_1_)" enable-background="new    " d="
	M447.43,398.894c-12.323-11.137-20.88-26.794-22.962-47.046c-1.41-13.723,1.592-29.868,8.572-43.311
	c6.98-13.442,17.977-24.19,32.504-26.956c5.842-1.112,12.55-0.166,17.724,2.933c5.176,3.099,8.825,8.404,8.407,15.933
	c-0.136,2.444-1.05,5.47-2.615,7.872l-0.072-0.065c1.467-2.251,2.202-5.447,2.329-7.729c0.401-7.253-3.384-12.344-8.425-15.363
	s-11.628-3.961-17.315-2.878c-14.292,2.721-24.059,14.412-30.954,27.689c-6.896,13.278-9.171,27.788-7.777,41.347
	c3.003,29.215,20.155,44.277,42.104,54.499c21.949,10.22,46.353,8.113,70.773,0.071c47.191-15.537,75.286-48.708,95.774-94.363
	c20.488-45.657,23.71-91.848,14.736-137.433c-10.3-52.315-36.437-89.07-71.782-113.052c15.823,22.772,23.338,52.306,16.812,84.863
	c-3.505,17.491-11.948,35.062-23.521,49.052c-0.374,0.452-0.748,0.888-1.128,1.332c-1.736,2.028-3.547,3.988-5.411,5.845
	c-14.915,14.853-33.746,23.835-53.539,20.952c-10.261-1.494-20.105-7.276-26.482-15.86c-6.377-8.583-9.273-19.99-5.604-32.731
	c1.711-5.936,5.406-12.01,10.127-16.18s9.707-5.45,15.445-3.734c2.307,0.689,4.586,2.403,5.968,4.697
	c1.382,2.295,1.301,4.688-0.071,7.709c-0.446,0.982-1.28,2.056-2.239,2.739l-0.016-0.044c0.898-0.64,1.693-1.816,2.108-2.731
	c1.321-2.912,1.337-5.239-0.011-7.475c-1.346-2.235-3.603-3.92-5.85-4.592c-5.646-1.688-10.319,0.211-14.982,4.33
	c-4.663,4.12-7.844,9.677-9.532,15.541c-3.643,12.636,0.163,22.204,6.499,30.733c6.335,8.529,15.562,12.472,25.759,13.957
	c19.702,2.87,35.297-5.292,50.157-20.091c14.858-14.798,23.521-33.213,27.643-53.773c11.583-57.794-26.524-95.804-72.399-111.574
	c-50.326-13.648-108.647-11.711-164.394,1.456l5.379-3.384c114.993-27.161,246.46-14.188,290.304,97.466
	c3.628,7.732,9.82,15.931,16.785,23.776c28.555,32.167,64.578,51.195,107.952,53.426c43.373,2.231,81.594-9.738,116.846-50.261
	c18.243-20.971,32.205-44.915,36.016-72.651c3.811-27.737,1.699-53.037-17.846-71.003c-9.068-8.337-20.709-13.409-33.801-13.096
	c-20.267,0.12-39.617,13.446-42.497,36.926c-0.391,6.712,1.361,13.185,6.799,16.467c1.71,1.032,4.396,1.925,6.767,1.567l0.002,0.094
	c-2.53,0.383-5.188-0.227-7.021-1.333c-5.644-3.407-7.582-9.856-7.182-16.746c2.554-24.964,22.145-37.052,42.906-39.327
	c13.253-0.317,26.434,4.858,35.613,13.297c19.707,18.116,25.393,45.316,21.558,73.232c-3.834,27.916-17.18,56.579-35.539,77.684
	c-35.414,40.709-80.713,56.759-124.247,54.52c-5.441-0.28-10.868-0.828-16.232-1.667c-1.174-0.184-2.333-0.388-3.502-0.598
	c-35.979-6.458-69.472-25.191-93.523-52.492c0.645,2.76,1.254,5.545,1.811,8.371c7.634,38.781,4.141,83.03-9.624,123.518
	c-0.442,1.306-0.894,2.592-1.357,3.891c-2.128,5.934-4.474,11.783-7.043,17.512c-20.564,45.824-55.249,84.149-102.657,99.76
	c-24.578,8.093-52.038,7.167-74.129-3.12C459.419,408.07,453.031,403.955,447.43,398.894z"/>
<g id="g5728" transform="matrix(1.0548602,0,0,1.0548602,-33.28293,770.75801)">
</g>
<g id="layer4" transform="translate(1262.021,117.71421)" inkscape:label="box">
</g>
<g id="layer5" transform="translate(1262.021,117.71421)" inkscape:label="zip_app">
</g>
<polygon id="rect1327" opacity="0.5779" fill="#FFFFFF" enable-background="new    " points="1175.552,56.182 1176.552,56.182 
	1176.552,56.182 "/>
<polygon id="rect2482" opacity="0.5779" fill="#FFFFFF" enable-background="new    " points="1140.425,28.654 1141.425,28.654 
	1141.425,28.654 "/>
<g id="g4640" transform="matrix(-0.782995,0,0,0.650879,-1341.371,641.95551)" opacity="0.4016">
</g>
<g id="g4646" transform="matrix(-0.782995,0,0,0.650879,-1341.371,641.95551)" opacity="0.4016">
</g>
<g id="g4730" transform="matrix(1,0,0,0.650879,1859.5918,649.28331)" opacity="0.4016">
</g>
<g id="g4748" transform="matrix(1,0,0,0.650879,1859.5918,649.28331)" opacity="0.4016">
</g>
<radialGradient id="SVGID_1_" cx="702.9998" cy="807.5001" r="487.5" gradientTransform="matrix(1 0 0 -1 -63 807.5001)" gradientUnits="userSpaceOnUse">
	<stop  offset="0" style="stop-color:#FDFDFE"/>
	<stop  offset="0.9141" style="stop-color:#FDFDFE;stop-opacity:0"/>
</radialGradient>
<path opacity="0.3" fill="url(#SVGID_1_)" enable-background="new    " d="M640-487.5c269.185,0,487.5,218.296,487.5,487.5
	c0,269.215-218.315,487.5-487.5,487.5C370.782,487.5,152.5,269.215,152.5,0C152.5-269.204,370.782-487.5,640-487.5z"/>
</svg>
