<?xml version="1.0" encoding="UTF-8" standalone="no"?>
<!-- Created with Inkscape (http://www.inkscape.org/) -->
<svg
   xmlns:dc="http://purl.org/dc/elements/1.1/"
   xmlns:cc="http://creativecommons.org/ns#"
   xmlns:rdf="http://www.w3.org/1999/02/22-rdf-syntax-ns#"
   xmlns:svg="http://www.w3.org/2000/svg"
   xmlns="http://www.w3.org/2000/svg"
   xmlns:xlink="http://www.w3.org/1999/xlink"
   xmlns:sodipodi="http://sodipodi.sourceforge.net/DTD/sodipodi-0.dtd"
   xmlns:inkscape="http://www.inkscape.org/namespaces/inkscape"
   id="svg2"
   sodipodi:version="0.32"
   inkscape:version="0.46"
   width="1280"
   height="800"
   version="1.0"
   sodipodi:docname="background.svg"
   inkscape:output_extension="org.inkscape.output.svg.inkscape">
  <sodipodi:namedview
     inkscape:window-height="854"
     inkscape:window-width="1440"
     inkscape:pageshadow="2"
     inkscape:pageopacity="0.0"
     guidetolerance="10.0"
     gridtolerance="10.0"
     objecttolerance="10.0"
     borderopacity="1.0"
     bordercolor="#666666"
     pagecolor="#ffffff"
     id="base"
     showgrid="false"
     showguides="true"
     inkscape:guide-bbox="true"
     inkscape:zoom="0.60561345"
     inkscape:cx="546.80586"
     inkscape:cy="444.06756"
     inkscape:window-x="474"
     inkscape:window-y="320"
     inkscape:current-layer="svg2">
    <inkscape:grid
       visible="true"
       enabled="true"
       id="grid9036"
       type="xygrid" />
  </sodipodi:namedview>
  <metadata
     id="metadata7">
    <rdf:RDF>
      <cc:Work
         rdf:about="">
        <dc:format>image/svg+xml</dc:format>
        <dc:type
           rdf:resource="http://purl.org/dc/dcmitype/StillImage" />
      </cc:Work>
    </rdf:RDF>
  </metadata>
  <defs
     id="defs5">
    <linearGradient
       id="linearGradient3357">
      <stop
         style="stop-color:#1a1a1a;stop-opacity:1;"
         offset="0"
         id="stop3359" />
      <stop
         style="stop-color:#ffffff;stop-opacity:0.25373134;"
         offset="1"
         id="stop3361" />
    </linearGradient>
    <inkscape:perspective
       sodipodi:type="inkscape:persp3d"
       inkscape:vp_x="-50 : 600 : 1"
       inkscape:vp_y="0 : 1000 : 0"
       inkscape:vp_z="700 : 600 : 1"
       inkscape:persp3d-origin="300 : 400 : 1"
       id="perspective101" />
    <linearGradient
       id="linearGradient9066">
      <stop
         id="stop9068"
         offset="0"
         style="stop-color:#b6edfd;stop-opacity:1;" />
      <stop
         id="stop9070"
         offset="1"
         style="stop-color:#748b92;stop-opacity:1;" />
    </linearGradient>
    <radialGradient
       r="640"
       fy="-503.56891"
       fx="641.10065"
       cy="-503.56891"
       cx="641.10065"
       gradientTransform="matrix(1.0684864,0,0,0.8678154,-43.890141,837.711)"
       gradientUnits="userSpaceOnUse"
       id="radialGradient5597"
       xlink:href="#linearGradient3240"
       inkscape:collect="always" />
    <mask
       id="mask5593"
       maskUnits="userSpaceOnUse">
      <rect
         inkscape:export-ydpi="90"
         inkscape:export-xdpi="90"
         inkscape:export-filename="/home/pinheiro/photos/000000/winners/blac.png"
         style="opacity:1;fill:url(#radialGradient5597);fill-opacity:1;fill-rule:nonzero;stroke:none;stroke-width:2;stroke-linecap:round;stroke-linejoin:round;stroke-miterlimit:4;stroke-dasharray:none;stroke-dashoffset:0;stroke-opacity:1"
         id="rect5595"
         width="1280"
         height="800"
         x="1.1172047"
         y="0.70607889" />
    </mask>
    <linearGradient
       id="linearGradient5494"
       inkscape:collect="always">
      <stop
         id="stop5496"
         offset="0"
         style="stop-color:#1f1f1f;stop-opacity:1;" />
      <stop
         id="stop5498"
         offset="1"
         style="stop-color:#1f1f1f;stop-opacity:0;" />
    </linearGradient>
    <linearGradient
       inkscape:collect="always"
       id="linearGradient3361">
      <stop
         style="stop-color:#ffffff;stop-opacity:1;"
         offset="0"
         id="stop3363" />
      <stop
         style="stop-color:#ffffff;stop-opacity:0;"
         offset="1"
         id="stop3365" />
    </linearGradient>
    <linearGradient
       inkscape:collect="always"
       id="linearGradient3300">
      <stop
         style="stop-color:#ffffff;stop-opacity:1;"
         offset="0"
         id="stop3302" />
      <stop
         style="stop-color:#ffffff;stop-opacity:0;"
         offset="1"
         id="stop3304" />
    </linearGradient>
    <linearGradient
       inkscape:collect="always"
       id="linearGradient3240">
      <stop
         style="stop-color:#ffffff;stop-opacity:1;"
         offset="0"
         id="stop3242" />
      <stop
         style="stop-color:#ffffff;stop-opacity:0;"
         offset="1"
         id="stop3244" />
    </linearGradient>
    <linearGradient
       inkscape:collect="always"
       id="linearGradient3227">
      <stop
         style="stop-color:#ffffff;stop-opacity:1;"
         offset="0"
         id="stop3229" />
      <stop
         style="stop-color:#ffffff;stop-opacity:0;"
         offset="1"
         id="stop3231" />
    </linearGradient>
    <linearGradient
       id="linearGradient3159">
      <stop
         style="stop-color:#000000;stop-opacity:1;"
         offset="0"
         id="stop3161" />
      <stop
         style="stop-color:#aaaaaa;stop-opacity:1;"
         offset="1"
         id="stop3163" />
    </linearGradient>
    <linearGradient
       y2="950.41473"
       x2="774.4657"
       y1="740.40045"
       x1="774.4657"
       gradientTransform="translate(-0.979273,-0.9947999)"
       gradientUnits="userSpaceOnUse"
       id="linearGradient5660"
       xlink:href="#linearGradient3159"
       inkscape:collect="always" />
    <linearGradient
       y2="713.83942"
       x2="654.49023"
       y1="495.84497"
       x1="654.49023"
       gradientTransform="translate(-41,0)"
       gradientUnits="userSpaceOnUse"
       id="linearGradient5662"
       xlink:href="#linearGradient5494"
       inkscape:collect="always" />
    <radialGradient
       r="410.77905"
       fy="312.29956"
       fx="498.20294"
       cy="312.29956"
       cx="498.20294"
       gradientTransform="matrix(0.5015153,-0.156916,0.1664808,0.5320852,92.537643,311.16164)"
       gradientUnits="userSpaceOnUse"
       id="radialGradient5664"
       xlink:href="#linearGradient3227"
       inkscape:collect="always" />
    <radialGradient
       r="411.77905"
       fy="647.44019"
       fx="294.0603"
       cy="647.44019"
       cx="294.0603"
       gradientTransform="matrix(1,0,0,0.9912909,0.1006673,5.6385941)"
       gradientUnits="userSpaceOnUse"
       id="radialGradient5666"
       xlink:href="#linearGradient3240"
       inkscape:collect="always" />
    <linearGradient
       y2="339.8811"
       x2="325.3364"
       y1="301.1246"
       x1="325.3364"
       gradientTransform="translate(0.1006673,0)"
       gradientUnits="userSpaceOnUse"
       id="linearGradient5668"
       xlink:href="#linearGradient3240"
       inkscape:collect="always" />
    <radialGradient
       r="6.6199732"
       fy="247.923"
       fx="864.93866"
       cy="247.923"
       cx="864.93866"
       gradientTransform="matrix(2.2171964,-8.7461512e-6,5.171064e-6,1.3108925,-1052.8015,-77.069858)"
       gradientUnits="userSpaceOnUse"
       id="radialGradient5670"
       xlink:href="#linearGradient3300"
       inkscape:collect="always" />
    <linearGradient
       y2="343.60672"
       x2="325.3364"
       y1="314.15103"
       x1="325.3364"
       gradientTransform="matrix(0.6487722,0,0,0.6487722,658.64518,25.91787)"
       gradientUnits="userSpaceOnUse"
       id="linearGradient5672"
       xlink:href="#linearGradient3240"
       inkscape:collect="always" />
    <radialGradient
       r="381.45328"
       fy="339.92731"
       fx="998.43866"
       cy="339.92731"
       cx="998.43866"
       gradientTransform="matrix(1,0,0,0.9160553,0,19.589099)"
       gradientUnits="userSpaceOnUse"
       id="radialGradient5674"
       xlink:href="#linearGradient3361"
       inkscape:collect="always" />
    <radialGradient
       r="6.6199732"
       fy="247.923"
       fx="864.93866"
       cy="247.923"
       cx="864.93866"
       gradientTransform="matrix(2.2171964,-8.7461512e-6,5.171064e-6,1.3108925,-1052.8015,-77.069858)"
       gradientUnits="userSpaceOnUse"
       id="radialGradient5676"
       xlink:href="#linearGradient3300"
       inkscape:collect="always" />
    <linearGradient
       y2="343.60672"
       x2="325.3364"
       y1="314.15103"
       x1="325.3364"
       gradientTransform="matrix(0.5010405,0,0,0.5010405,684.75257,89.401488)"
       gradientUnits="userSpaceOnUse"
       id="linearGradient5678"
       xlink:href="#linearGradient3240"
       inkscape:collect="always" />
    <radialGradient
       r="6.6199732"
       fy="247.923"
       fx="864.93866"
       cy="247.923"
       cx="864.93866"
       gradientTransform="matrix(2.2171964,-8.7461512e-6,5.171064e-6,1.3108925,-1052.8015,-77.069858)"
       gradientUnits="userSpaceOnUse"
       id="radialGradient5680"
       xlink:href="#linearGradient3300"
       inkscape:collect="always" />
    <linearGradient
       y2="343.60672"
       x2="325.3364"
       y1="314.15103"
       x1="325.3364"
       gradientTransform="matrix(0.4391934,0,0,0.4391934,726.96153,97.56414)"
       gradientUnits="userSpaceOnUse"
       id="linearGradient5682"
       xlink:href="#linearGradient3240"
       inkscape:collect="always" />
    <radialGradient
       r="6.6199732"
       fy="247.923"
       fx="864.93866"
       cy="247.923"
       cx="864.93866"
       gradientTransform="matrix(2.2171964,-8.7461512e-6,5.171064e-6,1.3108925,-1052.8015,-77.069858)"
       gradientUnits="userSpaceOnUse"
       id="radialGradient5684"
       xlink:href="#linearGradient3300"
       inkscape:collect="always" />
    <linearGradient
       y2="343.60672"
       x2="325.3364"
       y1="314.15103"
       x1="325.3364"
       gradientTransform="matrix(0.6487722,0,0,0.6487722,650.64518,30.91787)"
       gradientUnits="userSpaceOnUse"
       id="linearGradient5686"
       xlink:href="#linearGradient3240"
       inkscape:collect="always" />
    <radialGradient
       r="6.6199732"
       fy="247.923"
       fx="864.93866"
       cy="247.923"
       cx="864.93866"
       gradientTransform="matrix(2.2171964,0,0,1.4748698,-1052.8002,-117.73117)"
       gradientUnits="userSpaceOnUse"
       id="radialGradient5688"
       xlink:href="#linearGradient3300"
       inkscape:collect="always" />
    <linearGradient
       y2="343.60672"
       x2="325.3364"
       y1="314.15103"
       x1="325.3364"
       gradientTransform="matrix(0.6487722,0,0,0.6487722,650.64518,30.91787)"
       gradientUnits="userSpaceOnUse"
       id="linearGradient5690"
       xlink:href="#linearGradient3240"
       inkscape:collect="always" />
    <radialGradient
       gradientUnits="userSpaceOnUse"
       gradientTransform="matrix(1.1781174,-2.8734396e-2,1.2424648e-2,0.5094137,-87.029377,554.02471)"
       r="34.801285"
       fy="-493.42346"
       fx="545.09064"
       cy="-493.42346"
       cx="545.09064"
       id="radialGradient9072"
       xlink:href="#linearGradient9066"
       inkscape:collect="always" />
    <linearGradient
       gradientUnits="userSpaceOnUse"
       y2="512.04498"
       x2="1256.6138"
       y1="512.04498"
       x1="1124.0671"
       gradientTransform="scale(0.9990401,1.0009608)"
       id="linearGradient6666">
      <stop
         id="stop6668"
         offset="0"
         style="stop-color:#a03700;stop-opacity:1;" />
      <stop
         id="stop6670"
         offset="1"
         style="stop-color:#8d0000;stop-opacity:1;" />
    </linearGradient>
    <radialGradient
       inkscape:collect="always"
       xlink:href="#linearGradient4391"
       id="radialGradient3617"
       gradientUnits="userSpaceOnUse"
       gradientTransform="matrix(1.3364993,-0.2573789,0.2883199,1.3880947,-482.56528,120.75736)"
       cx="1143.5531"
       cy="494.27905"
       fx="1130.7726"
       fy="468.10941"
       r="46.861942" />
    <linearGradient
       id="linearGradient4391">
      <stop
         id="stop4393"
         offset="0"
         style="stop-color:#ffff00;stop-opacity:1;" />
      <stop
         style="stop-color:#f9f500;stop-opacity:1;"
         offset="0.34460136"
         id="stop3486" />
      <stop
         style="stop-color:#f4eb00;stop-opacity:1;"
         offset="0.46399081"
         id="stop3484" />
      <stop
         style="stop-color:#ead700;stop-opacity:1;"
         offset="0.69395709"
         id="stop3482" />
      <stop
         id="stop4397"
         offset="1"
         style="stop-color:#d6af00;stop-opacity:1;" />
    </linearGradient>
    <linearGradient
       inkscape:collect="always"
       id="linearGradient3619">
      <stop
         style="stop-color:#9b0c0c;stop-opacity:1;"
         offset="0"
         id="stop3621" />
      <stop
         style="stop-color:#9b0c0c;stop-opacity:0;"
         offset="1"
         id="stop3623" />
    </linearGradient>
    <linearGradient
       y2="421.24744"
       x2="1188.6729"
       y1="564.87622"
       x1="1211.8433"
       gradientUnits="userSpaceOnUse"
       id="linearGradient10950"
       xlink:href="#linearGradient3619"
       inkscape:collect="always" />
    <linearGradient
       y2="512.04498"
       x2="1256.6138"
       y1="512.04498"
       x1="1124.0671"
       gradientTransform="scale(0.9990401,1.0009608)"
       gradientUnits="userSpaceOnUse"
       id="linearGradient10952"
       xlink:href="#linearGradient6666"
       inkscape:collect="always" />
    <linearGradient
       inkscape:collect="always"
       xlink:href="#linearGradient3159"
       id="linearGradient2474"
       gradientUnits="userSpaceOnUse"
       gradientTransform="translate(-0.979273,-0.9947999)"
       x1="774.4657"
       y1="740.40045"
       x2="774.4657"
       y2="950.41473" />
    <radialGradient
       inkscape:collect="always"
       xlink:href="#linearGradient3361"
       id="radialGradient3263"
       gradientUnits="userSpaceOnUse"
       gradientTransform="matrix(-0.5810059,0.2406672,-0.187254,-0.5357546,741.6798,32.54828)"
       cx="998.43866"
       cy="339.92731"
       fx="998.43866"
       fy="339.92731"
       r="381.45328" />
    <linearGradient
       inkscape:collect="always"
       xlink:href="#linearGradient3240"
       id="linearGradient3269"
       gradientUnits="userSpaceOnUse"
       gradientTransform="matrix(10.105727,0,0,18.663046,-2658.8417,-5691.2511)"
       x1="325.3364"
       y1="301.1246"
       x2="325.3364"
       y2="339.8811" />
    <radialGradient
       inkscape:collect="always"
       xlink:href="#linearGradient3240"
       id="radialGradient3272"
       gradientUnits="userSpaceOnUse"
       gradientTransform="matrix(0.6591668,0,0,0.7502926,66.752225,223.17792)"
       cx="294.0603"
       cy="647.44019"
       fx="294.0603"
       fy="647.44019"
       r="411.77905" />
    <radialGradient
       inkscape:collect="always"
       xlink:href="#linearGradient3227"
       id="radialGradient3275"
       gradientUnits="userSpaceOnUse"
       gradientTransform="matrix(-0.2621472,0.3059259,-0.3242831,-0.2770192,1003.2222,0.906555)"
       cx="498.20294"
       cy="312.29956"
       fx="498.20294"
       fy="312.29956"
       r="410.77905" />
    <linearGradient
       inkscape:collect="always"
       xlink:href="#linearGradient5494"
       id="linearGradient3278"
       gradientUnits="userSpaceOnUse"
       gradientTransform="matrix(0.5651427,0,0,0.565,-20.259085,1.6998328)"
       x1="654.49023"
       y1="495.84497"
       x2="654.49023"
       y2="713.83942" />
    <radialGradient
       inkscape:collect="always"
       xlink:href="#linearGradient3240"
       id="radialGradient3284"
       gradientUnits="userSpaceOnUse"
       gradientTransform="matrix(0.4726508,0.4207102,0.446033,-0.5776,166.63056,379.61704)"
       cx="294.0603"
       cy="647.44019"
       fx="294.0603"
       fy="647.44019"
       r="411.77905" />
    <radialGradient
       inkscape:collect="always"
       xlink:href="#linearGradient3357"
       id="radialGradient3363"
       cx="675.34827"
       cy="10.717662"
       fx="675.34827"
       fy="10.717662"
       r="532.19226"
       gradientTransform="matrix(1,0,0,7.5403648e-2,0,9.9095111)"
       gradientUnits="userSpaceOnUse" />
    <filter
       inkscape:collect="always"
       id="filter3461"
       x="-0.061745664"
       width="1.1234913"
       y="-0.81886839"
       height="2.6377368">
      <feGaussianBlur
         inkscape:collect="always"
         stdDeviation="27.383804"
         id="feGaussianBlur3463" />
    </filter>
  </defs>
  <rect
     y="0.0051878104"
     x="-1.3934689"
     height="808"
     width="1288"
     id="rect5505"
     style="fill:#1a1a1a;fill-opacity:1;fill-rule:nonzero;stroke:none;stroke-width:2;stroke-linecap:round;stroke-linejoin:round;stroke-miterlimit:4;stroke-dasharray:none;stroke-dashoffset:0;stroke-opacity:1"
     inkscape:export-filename="/home/pinheiro/photos/000000/winners/blac.png"
     inkscape:export-xdpi="90"
     inkscape:export-ydpi="90" />
  <path
     style="opacity:0.52328766;fill:url(#radialGradient3275);fill-opacity:1;fill-rule:evenodd;stroke:none;stroke-width:1px;stroke-linecap:butt;stroke-linejoin:miter;stroke-opacity:1"
     d="M 851.17852,160.20076 C 868.15792,149.40673 881.65752,133.5632 888.49482,112.38723 C 893.12762,98.038525 893.06662,80.801215 887.71642,66.109485 C 882.36622,51.417725 871.68702,39.259535 855.10582,35.240645 C 848.43902,33.624685 840.30322,34.111315 833.51522,36.981945 C 826.72722,39.852575 821.26412,45.164055 820.13142,53.126605 C 819.76352,55.713115 820.19072,58.969005 821.52272,61.619035 L 821.62422,61.555425 C 820.37622,59.072435 820.19702,55.649805 820.54012,53.237145 C 821.63142,45.565675 827.20712,40.490145 833.81992,37.693615 C 840.43272,34.897085 848.42472,34.404975 854.91812,35.978845 C 871.22932,39.932385 880.25112,52.991565 885.53612,67.504145 C 890.82102,82.016775 890.37612,97.475145 885.79912,111.65099 C 875.93602,142.19875 852.39952,156.76271 824.23722,165.85957 C 796.07512,174.95633 767.67522,170.88132 740.53442,160.55246 C 688.09,140.59362 662.03655,103.51312 647.67501,53.857595 C 633.31356,4.202015 639.48487,-44.702535 659.94505,-92.041839 C 683.42584,-146.36996 722.27322,-183.10117 769.24992,-205.67581 C 745.62032,-182.89045 730.35292,-152.34921 731.03402,-117.55615 C 731.39992,-98.863649 737.58822,-79.709885 748.25052,-64.092925 C 748.59462,-63.589185 748.94322,-63.101065 749.29642,-62.604745 C 750.91112,-60.335855 752.62822,-58.133255 754.43162,-56.035605 C 768.85842,-39.254455 789.18522,-28.359345 813.21172,-29.890635 C 825.66742,-30.684495 838.55782,-36.026565 847.95272,-44.584085 C 857.34762,-53.141595 863.23932,-64.937555 861.65072,-78.638985 C 860.91062,-85.021735 857.85292,-91.701915 853.17222,-96.454209 C 848.49142,-101.2065 842.87202,-102.93379 835.71622,-101.56329 C 832.83902,-101.01226 829.77452,-99.381019 827.64462,-97.068719 C 825.51472,-94.756419 825.09382,-92.229619 826.06352,-88.941695 C 826.37852,-87.873675 827.13272,-86.678985 828.11962,-85.886595 L 828.14752,-85.932305 C 827.22282,-86.674755 826.53752,-87.973775 826.24372,-88.970025 C 825.30952,-92.137769 825.79562,-94.590989 827.87052,-96.843629 C 829.94542,-99.096309 832.97732,-100.69968 835.77962,-101.2364 C 842.81912,-102.58457 847.93682,-100.22929 852.56052,-95.534929 C 857.18412,-90.840585 859.74432,-84.744245 860.47552,-78.438365 C 862.05102,-64.849725 855.48502,-55.059755 846.15052,-46.557225 C 836.81592,-38.054685 825.05312,-34.602845 812.67602,-33.814005 C 788.75952,-32.289715 772.08212,-42.075115 757.70842,-58.794395 C 743.33472,-75.513785 737.07132,-95.572259 736.64112,-117.54454 C 735.43202,-179.30898 788.70432,-216.45129 846.35722,-229.57463 C 908.81562,-240.12325 977.3586,-233.64608 1040.4303,-215.53448 L 1032.1744,-254.92578 C 902.07012,-292.28643 746.43902,-253.2036 670.47226,-138.91772 C 662.44191,-132.06892 653.5543,-124.48213 644.24992,-116.81407 C 603.76449,-84.798715 558.06438,-66.129385 506.29563,-67.078645 C 454.52698,-68.027875 411.91847,-83.544955 378.9907,-128.91562 C 361.95021,-152.39533 350.6146,-178.68109 352.10227,-208.19004 C 353.59006,-237.69902 361.55218,-264.19091 388.54444,-281.63099 C 401.07045,-289.72409 415.92949,-294.18128 431.34213,-292.85556 C 455.28081,-291.18721 475.28167,-275.67669 473.61378,-250.72298 C 472.6255,-243.62237 469.15533,-236.9371 462.01694,-233.8931 C 459.77185,-232.93576 456.40501,-232.19895 453.6787,-232.75722 L 453.65592,-232.65826 C 456.56557,-232.06243 459.83873,-232.50224 462.24536,-233.52859 C 469.65468,-236.688 473.34043,-243.33478 474.35496,-250.62343 C 476.72968,-277.11563 456.17657,-291.34006 432.11884,-295.31665 C 416.51593,-296.65881 399.8118,-292.2101 387.13313,-284.01832 C 359.91678,-266.43356 347.31725,-238.21168 345.81993,-208.51196 C 344.32264,-178.81202 353.90991,-147.60153 371.05866,-123.97262 C 404.138,-78.393275 454.23443,-58.039505 506.1945,-57.086745 C 512.68952,-56.967615 519.22551,-57.132225 525.74943,-57.608625 C 527.17651,-57.712855 528.59205,-57.839405 530.01893,-57.971505 C 573.96015,-62.037975 617.60924,-79.224095 651.94892,-106.15413 C 650.5905,-103.29517 649.26781,-100.4078 647.99967,-97.473709 C 630.59356,-57.200715 625.16507,-10.320595 632.69076,33.378465 C 632.93361,34.788085 633.18771,36.177415 633.45751,37.580125 C 634.69073,43.992605 636.19986,50.333725 638.00171,56.563595 C 652.41625,106.40275 685.1483,149.41494 737.83402,169.46562 C 765.14702,179.86008 797.81722,180.97351 826.16152,171.81792 C 835.01912,168.95679 843.46072,165.10708 851.17852,160.20076 z"
     id="path5622" />
  <path
     style="opacity:0.52328766;fill:url(#radialGradient3284);fill-opacity:1;fill-rule:nonzero;stroke:none;stroke-width:0.40000001;stroke-linecap:round;stroke-linejoin:round;stroke-miterlimit:4;stroke-dasharray:none;stroke-dashoffset:0;stroke-opacity:1"
     d="M 447.42965,398.89326 C 435.10511,387.75687 426.54944,372.09929 424.46784,351.84745 C 423.05735,338.12492 426.05921,321.97892 433.04016,308.53673 C 440.02111,295.09453 451.01638,284.34723 465.54439,281.58137 C 471.38577,280.46925 478.09327,281.41557 483.26769,284.51423 C 488.44212,287.61288 492.09286,292.91854 491.67508,300.4469 C 491.53935,302.89237 490.62539,305.91707 489.0599,308.31962 L 488.98605,308.25388 C 490.45282,306.00279 491.18846,302.80697 491.31503,300.52585 C 491.71754,293.27268 487.93249,288.18134 482.8916,285.16264 C 477.85068,282.14392 471.26415,281.20117 465.57476,282.28434 C 451.28314,285.00519 441.51714,296.69654 434.62128,309.97484 C 427.72546,323.25314 425.45043,337.76291 426.84394,351.32015 C 429.84683,380.5349 446.99911,395.59858 468.94835,405.81892 C 490.89759,416.03925 515.30032,413.93327 539.72256,405.89207 C 586.9142,390.35388 615.0088,357.18361 635.49705,311.52699 C 655.98532,265.87037 659.20655,219.67971 650.23307,174.0942 C 639.93483,121.77883 613.79769,85.023724 578.45159,61.041954 C 594.27411,83.813874 601.78904,113.34825 595.26404,145.90478 C 591.75849,163.39572 583.31409,180.96788 571.7408,194.95671 C 571.36745,195.40796 570.99289,195.84426 570.6131,196.28797 C 568.8769,198.31635 567.06655,200.27646 565.2022,202.13305 C 550.2874,216.98569 531.45576,225.9681 511.66327,223.08517 C 501.40259,221.59062 491.55763,215.80862 485.18086,207.22478 C 478.80406,198.64095 475.9058,187.23417 479.57748,174.49306 C 481.28791,168.55767 484.98378,162.48333 489.7043,158.31304 C 494.42482,154.14276 499.41101,152.86319 505.14927,154.57854 C 507.45649,155.26823 509.73514,156.98126 511.11706,159.27604 C 512.499,161.57084 512.41769,163.96354 511.04543,166.98555 C 510.59968,167.9672 509.76559,169.04104 508.80618,169.72394 L 508.79071,169.67943 C 509.68966,169.03957 510.48406,167.86382 510.89985,166.94814 C 512.22194,164.0366 512.23623,161.70888 510.88995,159.47331 C 509.54371,157.23771 507.28749,155.55275 505.04032,154.88099 C 499.3954,153.19355 494.72046,155.09175 490.05749,159.21119 C 485.39455,163.33061 482.21389,168.88796 480.52407,174.75187 C 476.88262,187.38809 480.68717,196.9561 487.02296,205.48478 C 493.35877,214.01346 502.58615,217.95653 512.7821,219.44166 C 532.48394,222.3114 548.07953,214.14871 562.93937,199.35078 C 577.79923,184.55285 586.46124,166.13763 590.58189,145.57771 C 602.16505,87.783484 564.05798,49.773724 518.18254,34.003314 C 467.85524,20.355477 409.53445,22.292367 353.78869,35.459314 L 359.1674,32.075604 C 474.15982,4.9148029 605.62827,17.888147 649.47123,129.54167 C 653.09944,137.27368 659.29193,145.47197 666.2565,153.31742 C 694.81169,185.48419 730.83537,204.51265 774.20856,206.74381 C 817.58176,208.97497 855.80295,197.00532 891.05472,156.4824 C 909.29793,135.51132 923.25952,111.56756 927.06966,83.830954 C 930.87981,56.094334 928.7692,30.794154 909.22473,12.827607 C 900.15502,4.4901269 888.51534,-0.58150309 875.42373,-0.26848309 C 855.15685,-0.14833309 835.807,13.177817 832.92718,36.657394 C 832.53646,43.369584 834.28848,49.842214 839.72566,53.124404 C 841.43569,54.156674 844.11993,55.049894 846.49104,54.691214 L 846.49314,54.785304 C 843.96247,55.168104 841.30583,54.558724 839.47259,53.452124 C 833.8291,50.045394 831.89049,43.595944 832.29146,36.706074 C 834.8447,11.742317 854.43544,-0.34570309 875.19677,-2.6210926 C 888.45007,-2.9380326 901.63122,2.2368369 910.81148,10.675977 C 930.51816,28.791577 936.20328,55.992144 932.36853,83.908064 C 928.53375,111.8241 915.18831,140.48735 896.82922,161.59159 C 861.41522,202.30096 816.11598,218.35073 772.58243,216.11134 C 767.14072,215.83143 761.71346,215.28324 756.3495,214.44363 C 755.17614,214.25995 754.01633,214.05606 752.84802,213.84634 C 716.86691,207.38776 683.37586,188.65504 659.3233,161.35437 C 659.96775,164.11483 660.57747,166.89975 661.13364,169.72513 C 668.76765,208.50608 665.27296,252.75528 651.51019,293.2433 C 651.06621,294.54936 650.61623,295.83567 650.15091,297.13364 C 648.02374,303.06715 645.67849,308.91715 643.10799,314.64535 C 622.54398,360.47074 587.85943,398.79592 540.45066,414.40559 C 515.87338,422.49788 488.41339,421.57178 466.32216,411.28532 C 459.41867,408.0708 453.03171,403.95525 447.42965,398.89326 z"
     id="path5624"
     sodipodi:nodetypes="csssssccssssssssscsssssssssssccsssssssssccccsssssccsccsccsssssscssssssc" />
  <g
     transform="matrix(1.0548602,0,0,1.0548602,-33.28293,770.75801)"
     id="g5728"
     style="stroke:none" />
  <g
     transform="translate(1262.021,117.71421)"
     style="display:inline"
     inkscape:label="box"
     id="layer4" />
  <g
     transform="translate(1262.021,117.71421)"
     style="display:inline"
     inkscape:label="zip_app"
     id="layer5" />
  <rect
     y="56.181572"
     x="1175.5515"
     height="0"
     width="1"
     id="rect1327"
     style="opacity:0.57786889;fill:#ffffff;fill-opacity:1;fill-rule:nonzero;stroke:none;stroke-width:3.63199997;stroke-linecap:round;stroke-linejoin:round;stroke-miterlimit:4;stroke-dasharray:none;stroke-dashoffset:4;stroke-opacity:1" />
  <rect
     y="28.653923"
     x="1140.4248"
     height="0"
     width="1"
     id="rect2482"
     style="opacity:0.57786889;fill:#ffffff;fill-opacity:1;fill-rule:nonzero;stroke:none;stroke-width:3.63199997;stroke-linecap:round;stroke-linejoin:round;stroke-miterlimit:4;stroke-dasharray:none;stroke-dashoffset:4;stroke-opacity:1" />
  <g
     id="g4640"
     transform="matrix(-0.782995,0,0,0.650879,-1341.371,641.95551)"
     style="opacity:0.40163933" />
  <g
     style="opacity:0.40163933"
     transform="matrix(-0.782995,0,0,0.650879,-1341.371,641.95551)"
     id="g4646" />
  <g
     style="opacity:0.40163933"
     transform="matrix(1,0,0,0.650879,1859.5918,649.28331)"
     id="g4730" />
  <g
     id="g4748"
     transform="matrix(1,0,0,0.650879,1859.5918,649.28331)"
     style="opacity:0.40163933" />
  <path
     sodipodi:type="arc"
     style="opacity:1;fill:url(#radialGradient3363);fill-opacity:1;fill-rule:evenodd;stroke:#000000;stroke-width:1px;stroke-linecap:butt;stroke-linejoin:miter;stroke-opacity:1;filter:url(#filter3461)"
     id="path2585"
     sodipodi:cx="675.34827"
     sodipodi:cy="10.717662"
     sodipodi:rx="531.69226"
     sodipodi:ry="39.629238"
     d="M 1207.0405,10.717662 A 531.69226,39.629238 0 1 1 143.65601,10.717662 A 531.69226,39.629238 0 1 1 1207.0405,10.717662 z"
     transform="matrix(0.9814146,0,0,0.9173125,3.94353e-2,-17.277182)" />
</svg>
