/* XPM */
static const char * cikar_xpm[] = {
"16 16 116 2",
"  	c None",
". 	c #1647A7",
"+ 	c #1551C3",
"@ 	c #1155C8",
"# 	c #5275BE",
"$ 	c #92BADD",
"% 	c #0D38A0",
"& 	c #164BC1",
"* 	c #A6C4EC",
"= 	c #417DDA",
"- 	c #325AAF",
"; 	c #CFF4F6",
"> 	c #92C3E9",
", 	c #0636A4",
"' 	c #0743C0",
") 	c #91B4E7",
"! 	c #D6FAFF",
"~ 	c #3278DF",
"{ 	c #2950A9",
"] 	c #B0DBEE",
"^ 	c #ABE7FF",
"/ 	c #538DD7",
"( 	c #0236A6",
"_ 	c #0241BF",
": 	c #7BA2E2",
"< 	c #BDE7FF",
"[ 	c #83C3F9",
"} 	c #1866DD",
"| 	c #2143A2",
"1 	c #A6D0E8",
"2 	c #8BD3FF",
"3 	c #4B8EE3",
"4 	c #083CAA",
"5 	c #003ABC",
"6 	c #6D98DF",
"7 	c #A7D9FF",
"8 	c #64B0FB",
"9 	c #206EE2",
"0 	c #16399C",
"a 	c #97C3E2",
"b 	c #75C4FF",
"c 	c #2E80E8",
"d 	c #0A3FAC",
"e 	c #003BBC",
"f 	c #5D8CDB",
"g 	c #96CDFE",
"h 	c #429BFE",
"i 	c #1A6EE4",
"j 	c #004CD6",
"k 	c #0F3B9E",
"l 	c #88B6DE",
"m 	c #60B7FF",
"n 	c #0F6FEE",
"o 	c #023FAF",
"p 	c #4D82D8",
"q 	c #85C1FD",
"r 	c #2286FF",
"s 	c #0B65E7",
"t 	c #0053D9",
"u 	c #1744A0",
"v 	c #5099E6",
"w 	c #0F7DFF",
"x 	c #0566EC",
"y 	c #0F47B3",
"z 	c #3B80E0",
"A 	c #2A8CFF",
"B 	c #006DFF",
"C 	c #0C66E8",
"D 	c #055BE1",
"E 	c #0439A9",
"F 	c #1E7AEB",
"G 	c #1482FF",
"H 	c #3680EA",
"I 	c #1851BD",
"J 	c #004BCE",
"K 	c #136DE9",
"L 	c #1982FF",
"M 	c #2280FE",
"N 	c #327FEF",
"O 	c #0A49B9",
"P 	c #2280F1",
"Q 	c #1A85FF",
"R 	c #2D7CEA",
"S 	c #0C52C7",
"T 	c #0156DA",
"U 	c #1B78F1",
"V 	c #1D84FF",
"W 	c #2584FE",
"X 	c #1E79F6",
"Y 	c #0C54C6",
"Z 	c #2585F6",
"` 	c #1883FF",
" .	c #0A66E7",
"..	c #0051D1",
"+.	c #0260E8",
"@.	c #1D7FF7",
"#.	c #2186FF",
"$.	c #1179FE",
"%.	c #036CFE",
"&.	c #105ED3",
"*.	c #2D90FC",
"=.	c #1076F5",
"-.	c #0055D8",
";.	c #0367F4",
">.	c #2687FE",
",.	c #026EFF",
"'.	c #176CE1",
").	c #2582F4",
"!.	c #035BDF",
"~.	c #076FFE",
"{.	c #2B8CFF",
"].	c #0F77FF",
"^.	c #0962E3",
"/.	c #025FE4",
"(.	c #0671FF",
"_.	c #0570FF",
"                                ",
"            .               + @ ",
"          # $ %           & * = ",
"        - ; > ,         ' ) ! ~ ",
"      { ] ^ / (       _ : < [ } ",
"    | 1 2 3 4       5 6 7 8 9   ",
"  0 a b c d       e f g h i j   ",
"k l m n o         p q r s t     ",
"u v w x y         z A B C D     ",
"  E F G H I       J K L M N     ",
"    O P Q R S       T U V W X   ",
"      Y Z `  ...      +.@.#.$.%.",
"        &.*.=.-.        ;.>.r ,.",
"          '.).!.          ~.{.].",
"            ^./.            (._.",
"                                "};
