/* XPM */
static const char * ekle_xpm[] = {
"16 16 117 2",
"  	c None",
". 	c #1048B2",
"+ 	c #174BB4",
"@ 	c #1745A3",
"# 	c #3868C2",
"$ 	c #A8C3E9",
"% 	c #1D4CBA",
"& 	c #093199",
"* 	c #8AB1D8",
"= 	c #5B7DBE",
"- 	c #2963C3",
"; 	c #CEF6FF",
"> 	c #9CBBE7",
", 	c #0A45BC",
"' 	c #042C97",
") 	c #87B8E0",
"! 	c #D2FCFC",
"~ 	c #3C63B6",
"{ 	c #1451BD",
"] 	c #7EBDF2",
"^ 	c #BAE9FF",
"/ 	c #83A9E3",
"( 	c #0444C1",
"_ 	c #002D97",
": 	c #4B82CD",
"< 	c #A8E5FF",
"[ 	c #B3E0F3",
"} 	c #305DB5",
"| 	c #1C5EC9",
"1 	c #62ADF9",
"2 	c #A2D7FF",
"3 	c #76A1E2",
"4 	c #0042C6",
"5 	c #0635A0",
"6 	c #4789DF",
"7 	c #87CFFF",
"8 	c #A8D8F0",
"9 	c #2854B6",
"0 	c #1862D4",
"a 	c #3F98FC",
"b 	c #90CAFF",
"c 	c #6495E1",
"d 	c #0046CC",
"e 	c #073BA8",
"f 	c #2D7DE5",
"g 	c #6FC0FF",
"h 	c #9CCCED",
"i 	c #1C4DB8",
"j 	c #0043C0",
"k 	c #095DDB",
"l 	c #1E84FF",
"m 	c #80BFFE",
"n 	c #548EE4",
"o 	c #0051D7",
"p 	c #013FB0",
"q 	c #0F6DEC",
"r 	c #58AFFF",
"s 	c #8DC0EB",
"t 	c #1351BE",
"u 	c #0F60DB",
"v 	c #006FFF",
"w 	c #2489FF",
"x 	c #3E88E9",
"y 	c #0456D8",
"z 	c #0D46B1",
"A 	c #0666EA",
"B 	c #0B79FF",
"C 	c #4E9BF0",
"D 	c #1A5AC3",
"E 	c #2F71D9",
"F 	c #2482FC",
"G 	c #1782FF",
"H 	c #156FE9",
"I 	c #004ED6",
"J 	c #1448B1",
"K 	c #377EE5",
"L 	c #1380FF",
"M 	c #1E7EF1",
"N 	c #0649C3",
"O 	c #1B65D7",
"P 	c #2683FA",
"Q 	c #1A84FF",
"R 	c #1C77EC",
"S 	c #0154D7",
"T 	c #0A43B0",
"U 	c #2C76E2",
"V 	c #1A85FF",
"W 	c #2283F5",
"X 	c #0B53C5",
"Y 	c #0253D1",
"Z 	c #1073F5",
"` 	c #1E87FF",
" .	c #1F7BF0",
"..	c #0356D9",
"+.	c #003EAE",
"@.	c #085CD6",
"#.	c #1683FF",
"$.	c #2586F8",
"%.	c #0F58CA",
"&.	c #0159DA",
"*.	c #2783F3",
"=.	c #0458D9",
"-.	c #0041B4",
";.	c #0D6EE9",
">.	c #2C92FE",
",.	c #125CCD",
"'.	c #0D63DE",
").	c #2A87F5",
"!.	c #085CDB",
"~.	c #0244B9",
"{.	c #2379E6",
"].	c #1A68D7",
"^.	c #0043BB",
"/.	c #055BD9",
"(.	c #075DDD",
"_.	c #0851C6",
":.	c #0249C0",
"                                ",
". +               @             ",
"# $ %           & * =           ",
"- ; > ,         ' ) ! ~         ",
"{ ] ^ / (       _ : < [ }       ",
"  | 1 2 3 4       5 6 7 8 9     ",
"    0 a b c d       e f g h i   ",
"    j k l m n o       p q r s t ",
"      u v w x y       z A B C D ",
"    E F G H I       J K L M N   ",
"  O P Q R S       T U V W X     ",
"Y Z `  ...      +.@.#.$.%.      ",
"&.` *.=.        -.;.>.,.        ",
"'.).!.          ~.{.].^.        ",
"/.(.              _.:.          ",
"                                "};
