/* XPM */
static const char * gozluk_xpm[] = {
"32 32 513 2",
"  	c None",
". 	c #F9B190",
"+ 	c #F9A67F",
"@ 	c #F9AA84",
"# 	c #F9AB86",
"$ 	c #F9AC86",
"% 	c #F9AC87",
"& 	c #F8AC87",
"* 	c #F39B75",
"= 	c #DA7C56",
"- 	c #CC6C49",
"; 	c #F9AE8B",
"> 	c #F9A983",
", 	c #F89E76",
"' 	c #F69166",
") 	c #F5895C",
"! 	c #F58456",
"~ 	c #F47D4D",
"{ 	c #F47748",
"] 	c #F36F41",
"^ 	c #F0683C",
"/ 	c #E8653A",
"( 	c #E06238",
"_ 	c #D75E36",
": 	c #CF5A32",
"< 	c #C95830",
"[ 	c #C2542C",
"} 	c #BA5128",
"| 	c #B84F26",
"1 	c #B54D24",
"2 	c #B24C23",
"3 	c #B24D24",
"4 	c #BD5B33",
"5 	c #E18760",
"6 	c #EA9670",
"7 	c #CC6B48",
"8 	c #FAB99A",
"9 	c #F8A680",
"0 	c #F7946A",
"a 	c #F58151",
"b 	c #F47A49",
"c 	c #F47240",
"d 	c #F26A37",
"e 	c #F1602E",
"f 	c #F05424",
"g 	c #E94E21",
"h 	c #DE4A1F",
"i 	c #D1461C",
"j 	c #C54119",
"k 	c #B93D16",
"l 	c #B03913",
"m 	c #A6350F",
"n 	c #9E320B",
"o 	c #9B3009",
"p 	c #972F07",
"q 	c #942E05",
"r 	c #912C04",
"s 	c #8D2A02",
"t 	c #BA5B35",
"u 	c #D87C56",
"v 	c #FAAF8D",
"w 	c #F7986E",
"x 	c #F68D61",
"y 	c #F68E63",
"z 	c #FBC8B2",
"A 	c #F9B498",
"B 	c #F47C4E",
"C 	c #F26432",
"D 	c #F15928",
"E 	c #EC4F22",
"F 	c #E14C20",
"G 	c #DA522A",
"H 	c #D76A45",
"I 	c #D67859",
"J 	c #C65934",
"K 	c #AD3C16",
"L 	c #9F320C",
"M 	c #9C310A",
"N 	c #982F08",
"O 	c #962F07",
"P 	c #B15835",
"Q 	c #CF937B",
"R 	c #C48066",
"S 	c #8E2B03",
"T 	c #8A2901",
"U 	c #C66540",
"V 	c #BE5834",
"W 	c #F8A57F",
"X 	c #F69065",
"Y 	c #F68E62",
"Z 	c #FDE7DD",
"` 	c #FBC5AE",
" .	c #FBCCB9",
"..	c #FEF5F1",
"+.	c #FAC1AC",
"@.	c #F29271",
"#.	c #F5B49E",
"$.	c #FBDACE",
"%.	c #FEF5F0",
"&.	c #FBDFD4",
"*.	c #F6CDBF",
"=.	c #FDEAE2",
"-.	c #FDEBE4",
";.	c #EBC2B2",
">.	c #D29076",
",.	c #C6795C",
"'.	c #EFCEC1",
").	c #F8E3DB",
"!.	c #CA8D74",
"~.	c #F1D6CA",
"{.	c #CA8A71",
"].	c #872700",
"^.	c #942F0A",
"/.	c #C25B38",
"(.	c #F79970",
"_.	c #F68B5F",
":.	c #FABBA0",
"<.	c #FCD4C4",
"[.	c #F47543",
"}.	c #F36A37",
"|.	c #F37548",
"1.	c #FDE4DA",
"2.	c #FDE7DE",
"3.	c #F3AC94",
"4.	c #E17C5C",
"5.	c #D45C34",
"6.	c #B73C16",
"7.	c #AF3912",
"8.	c #A7350F",
"9.	c #B34C25",
"0.	c #C77A5C",
"a.	c #E0AC99",
"b.	c #FEF9F7",
"c.	c #D59C86",
"d.	c #922E06",
"e.	c #9E4421",
"f.	c #F8E4DC",
"g.	c #943916",
"h.	c #842600",
"i.	c #A84F2C",
"j.	c #F58658",
"k.	c #F8A886",
"l.	c #FCDCCE",
"m.	c #F3703E",
"n.	c #F26835",
"o.	c #F4774D",
"p.	c #FEF0EB",
"q.	c #F5B49C",
"r.	c #F8D1C2",
"s.	c #D1522A",
"t.	c #E7A68E",
"u.	c #B53B15",
"v.	c #AC3711",
"w.	c #A2330D",
"x.	c #9D320A",
"y.	c #9A3009",
"z.	c #942E06",
"A.	c #D19178",
"B.	c #E8C2B4",
"C.	c #8C2902",
"D.	c #A54D2A",
"E.	c #F5D9CE",
"F.	c #8C2D08",
"G.	c #822500",
"H.	c #A14521",
"I.	c #F68A5D",
"J.	c #F58152",
"K.	c #F47E4E",
"L.	c #FDE3D7",
"M.	c #FABDA6",
"N.	c #F16737",
"O.	c #FAC9B6",
"P.	c #F3AF97",
"Q.	c #E88260",
"R.	c #E99D83",
"S.	c #C5431B",
"T.	c #BE4620",
"U.	c #962E07",
"V.	c #99360E",
"W.	c #F6DFD5",
"X.	c #B46242",
"Y.	c #A14523",
"Z.	c #EFD8CE",
"`.	c #C17E64",
" +	c #832500",
".+	c #812400",
"++	c #A13B19",
"@+	c #F58355",
"#+	c #F47E4D",
"$+	c #F47745",
"%+	c #F58B61",
"&+	c #FFFAF8",
"*+	c #FEF2ED",
"=+	c #FEF0EA",
"-+	c #E87F5B",
";+	c #F9D4C5",
">+	c #CE4A21",
",+	c #DE8668",
"'+	c #B43B14",
")+	c #AB3711",
"!+	c #A0330C",
"~+	c #992F08",
"{+	c #952E06",
"]+	c #942D05",
"^+	c #8E2A02",
"/+	c #C1785C",
"(+	c #FCF2EE",
"_+	c #FDF5F1",
":+	c #E8C6B9",
"<+	c #872A05",
"[+	c #802400",
"}+	c #963B1C",
"|+	c #F57F4F",
"1+	c #F37240",
"2+	c #F16A38",
"3+	c #F7BAA2",
"4+	c #FFFFFF",
"5+	c #EE9F85",
"6+	c #DB4A1F",
"7+	c #D35129",
"8+	c #C34119",
"9+	c #BC421B",
"0+	c #A4340E",
"a+	c #9D310B",
"b+	c #962E06",
"c+	c #902C04",
"d+	c #902D07",
"e+	c #F2D7CC",
"f+	c #FFFCFB",
"g+	c #A14927",
"h+	c #802300",
"i+	c #8F3C1B",
"j+	c #D96438",
"k+	c #B24720",
"l+	c #95300D",
"m+	c #802304",
"n+	c #AC654E",
"o+	c #F5E1DA",
"p+	c #7E2407",
"q+	c #7B2002",
"r+	c #872606",
"s+	c #952D0A",
"t+	c #9B3008",
"u+	c #9D3109",
"v+	c #8F2B03",
"w+	c #8C2901",
"x+	c #B76849",
"y+	c #FDE9E1",
"z+	c #882A07",
"A+	c #7D2200",
"B+	c #8D3616",
"C+	c #731D00",
"D+	c #741E00",
"E+	c #741D00",
"F+	c #DBB2A2",
"G+	c #B87863",
"H+	c #882A0A",
"I+	c #A64F31",
"J+	c #CF8F78",
"K+	c #E7B8A7",
"L+	c #F7DED3",
"M+	c #903311",
"N+	c #942D07",
"O+	c #CA7B5C",
"P+	c #EFCABB",
"Q+	c #F4CEBD",
"R+	c #C47453",
"S+	c #B04F2A",
"T+	c #902D04",
"U+	c #872701",
"V+	c #F0D1C5",
"W+	c #AD5C3E",
"X+	c #7F2300",
"Y+	c #7A2100",
"Z+	c #8F2E0C",
"`+	c #E3C1B2",
" @	c #A2583E",
".@	c #761F01",
"+@	c #762003",
"@@	c #D08A70",
"#@	c #7B2408",
"$@	c #751E00",
"%@	c #B66C51",
"&@	c #AE5836",
"*@	c #922F07",
"=@	c #8B2901",
"-@	c #882800",
";@	c #DBB09F",
">@	c #BC7056",
",@	c #7C2200",
"'@	c #7A2000",
")@	c #862505",
"!@	c #AA4223",
"~@	c #DAA897",
"{@	c #B6745D",
"]@	c #D99981",
"^@	c #91391B",
"/@	c #BE7D66",
"(@	c #822401",
"_@	c #8B2900",
":@	c #AB5535",
"<@	c #9A4223",
"[@	c #F0CEC1",
"}@	c #A6583A",
"|@	c #7E2300",
"1@	c #7C2101",
"2@	c #9C4428",
"3@	c #BF8671",
"4@	c #CD9988",
"5@	c #771F01",
"6@	c #AE5A3F",
"7@	c #731C00",
"8@	c #7A2305",
"9@	c #A5563C",
"0@	c #761E00",
"a@	c #782001",
"b@	c #953F1E",
"c@	c #B06347",
"d@	c #943B1B",
"e@	c #FEEFE8",
"f@	c #923413",
"g@	c #781F00",
"h@	c #96472B",
"i@	c #A75E45",
"j@	c #E4C3B7",
"k@	c #80270A",
"l@	c #AB593D",
"m@	c #B56E56",
"n@	c #DEB9AA",
"o@	c #DEB7A8",
"p@	c #8A3417",
"q@	c #B96548",
"r@	c #924024",
"s@	c #CE8F7A",
"t@	c #CD8167",
"u@	c #FAE4DB",
"v@	c #772004",
"w@	c #711B00",
"x@	c #964224",
"y@	c #882E10",
"z@	c #FDEAE3",
"A@	c #842C10",
"B@	c #711C00",
"C@	c #C99583",
"D@	c #A5543A",
"E@	c #721C00",
"F@	c #8E3519",
"G@	c #F2E1D9",
"H@	c #D0A08F",
"I@	c #771F02",
"J@	c #D6A592",
"K@	c #903D20",
"L@	c #8B381D",
"M@	c #C9846B",
"N@	c #D9AE9E",
"O@	c #973616",
"P@	c #C88C77",
"Q@	c #F7E1D8",
"R@	c #EBC4B8",
"S@	c #FDF7F4",
"T@	c #CE9481",
"U@	c #BC6B4D",
"V@	c #AE5A3C",
"W@	c #934429",
"X@	c #E1B6A6",
"Y@	c #84280B",
"Z@	c #C27154",
"`@	c #B76A50",
" #	c #EBD0C6",
".#	c #F4DDD4",
"+#	c #994B31",
"@#	c #973414",
"##	c #873014",
"$#	c #E1AB96",
"%#	c #EED0C5",
"&#	c #FDF0EC",
"*#	c #C1785D",
"=#	c #AC4E2E",
"-#	c #7C2004",
";#	c #C27E66",
">#	c #862D0F",
",#	c #AC5638",
"'#	c #E1A894",
")#	c #FCF6F3",
"!#	c #EDCABD",
"~#	c #BF745A",
"{#	c #7A2407",
"]#	c #B66A4F",
"^#	c #893317",
"/#	c #C37C63",
"(#	c #923E23",
"_#	c #BB735B",
":#	c #D3A798",
"<#	c #F8DED3",
"[#	c #92391C",
"}#	c #A35239",
"|#	c #DCA18B",
"1#	c #852F13",
"2#	c #BB755B",
"3#	c #FDECE6",
"4#	c #C58871",
"5#	c #9D482E",
"6#	c #AB5D43",
"7#	c #B76B51",
"8#	c #7D2205",
"9#	c #842C0E",
"0#	c #7D2304",
"a#	c #A8583B",
"b#	c #741E01",
"c#	c #B86B51",
"d#	c #934026",
"e#	c #C47C64",
"f#	c #E3C2B6",
"g#	c #EBC6B8",
"h#	c #B87963",
"i#	c #802C10",
"j#	c #DBA794",
"k#	c #F6DFD8",
"l#	c #CC8A74",
"m#	c #AE5F45",
"n#	c #B26B51",
"o#	c #8F3E23",
"p#	c #822C10",
"q#	c #A54F32",
"r#	c #B26448",
"s#	c #D59277",
"t#	c #7B2203",
"u#	c #8B2F10",
"v#	c #933C21",
"w#	c #BA7157",
"x#	c #862F14",
"y#	c #862E13",
"z#	c #F3DCD3",
"A#	c #DDB5A6",
"B#	c #D5A492",
"C#	c #EED4CA",
"D#	c #C88F7A",
"E#	c #AE674E",
"F#	c #8F3C21",
"G#	c #A85234",
"H#	c #8D3618",
"I#	c #F4C6B1",
"J#	c #D78D6E",
"K#	c #97330B",
"L#	c #8C2A03",
"M#	c #892802",
"N#	c #852601",
"O#	c #943A1A",
"P#	c #AE5E40",
"Q#	c #792000",
"R#	c #852C0E",
"S#	c #AD644B",
"T#	c #BC725B",
"U#	c #A3553B",
"V#	c #751E01",
"W#	c #761F02",
"X#	c #BB7157",
"Y#	c #943D1F",
"Z#	c #EEB399",
"`#	c #F4B79B",
" $	c #DB7D58",
".$	c #C9522A",
"+$	c #BE4017",
"@$	c #B33A12",
"#$	c #B84721",
"$$	c #A1330C",
"%$	c #932C05",
"&$	c #8E2A04",
"*$	c #8A2902",
"=$	c #892D0D",
"-$	c #7C2303",
";$	c #782002",
">$	c #994223",
",$	c #CE8163",
"'$	c #F8C8B1",
")$	c #FCCBB2",
"!$	c #F9AE8C",
"~$	c #F69067",
"{$	c #F27D50",
"]$	c #EF7143",
"^$	c #E86538",
"/$	c #E15B2E",
"($	c #D75226",
"_$	c #CD4A1E",
":$	c #C24218",
"<$	c #B73C13",
"[$	c #AD370F",
"}$	c #A3330B",
"|$	c #9A3008",
"1$	c #942D06",
"2$	c #9F3C15",
"3$	c #C3704E",
"4$	c #EDAA8D",
"5$	c #FDD1BB",
"6$	c #FDD4BE",
"7$	c #FCC9AF",
"8$	c #FBBD9D",
"9$	c #FABA9B",
"0$	c #FAB695",
"a$	c #F9AC89",
"b$	c #F8A27C",
"c$	c #F7966D",
"d$	c #F47F52",
"e$	c #F07749",
"f$	c #EE7F58",
"g$	c #F0A382",
"h$	c #FCD0B9",
"i$	c #FCCCB2",
"j$	c #FCCAB0",
"k$	c #FCC8AD",
"l$	c #FCC7AB",
"m$	c #FCCDB4",
"n$	c #FCD5C0",
"                                                                ",
"                                                                ",
"                                                                ",
"          . + @ # # # # $ $ % # % % # # % & % % & * = -         ",
"        ; > , ' ) ! ~ { ] ^ / ( _ : < [ } | 1 2 3 4 5 6 7       ",
"      8 9 0 ) a b c d e f g h i j k l m n o p q r s s t u       ",
"      v w x y z A B C D E F G H I J K L M N O P Q R S T U V     ",
"      W X Y Z `  ...+.@.#.$.%.&.*.=.-.;.>.,.'.).!.~.{.].^./.    ",
"      (._.:.<.[.}.|.1.2.3.4.5.6.7.8.9.0.a.b.c.d.s e.f.g.h.i.    ",
"      ' j.k.l.m.n.o.p.q.r.s.t.u.v.w.x.y.z.A.B.s C.D.E.F.G.H.    ",
"      I.J.K.L.M.N.O.P.Q.R.S.T.l m n M U.q V.W.X.Y.Z.`. +.+++    ",
"      @+#+$+%+&+*+=+-+;+>+,+'+)+!+M ~+{+]+^+/+(+_+:+<+G.[+}+    ",
"      |+b 1+2+3+4+5+6+7+8+9+7.0+a+y.b+q c+s d+e+f+g+G.[+h+i+    ",
"      j+k+l+m+n+o+p+q+r+s+0+7.L M t+u+p v+s w+x+y+z+.+h+A+B+    ",
"      C+D+D+E+F+G+E+H+I+J+K+L+M+N+O+P+Q+R+S+T+U+V+W+[+X+Y+Z+    ",
"      D+D+D+E+`+ @D+E+D+.@+@@@#@$@%@&@*@s =@-@h.;@>@h+,@'@)@    ",
"    !@E+E+D+E+~@{@D+E+D+D+C+]@E+D+^@/@(@T _@:@<@[@}@|@'@'@1@    ",
"    2@D+D+D+E+3@4@E+$@E+5@D+6@7@E+8@9@0@a@b@c@d@e@f@Y+g@0@E+    ",
"    h@D+D+D+D+i@j@C+D+k@l@D+m@n@n@o@p@C+q@r@s@t@u@v@E+D+E+w@    ",
"    x@D+E+E+D+y@z@A@B@C@D@E@F@G@4+H@I@C+J@K@L@M@N@E+D+D+D+w@    ",
"    O@D+D+E+E+C+P@Q@R@S@T@U@V@W@X@Y@Z@`@ # #V+.#+#D+E+D+D+E@    ",
"    @#D+E+D+D+D+C+##$#%#&#*#=#-#;#>#,#'#)#!#~#{#E+D+E+D+D+E@    ",
"    ]#C+D+D+D+E+^#/#(#_#:#<#[#}#|#1#2#3#4#5#6#7#+@E+D+D+E+8#    ",
"      9#D+D+D+0#a#b#c#d#e#f#g#h#i#j#k#l#m#n#o#p#q#D+D+D+D+r#    ",
"      s#t#g@0@$@$@u#v#w#x#y#z#A#B#C#D#C+E#F#G#C+E+D+D+D+H#I#    ",
"        J#K#L#M#N#G.O#P#Q#g@R#S#T#U#V#D+W#X#E+E+D+E+E+Y#Z#      ",
"          `# $.$+$@$#$$$~+%$&$*$U+ +h+A+Y+=$-$0@;$>$,$'$        ",
"              )$!$~${$]$^$/$($_$:$<$[$}$|$1$2$3$4$5$            ",
"                  6$7$8$9$0$a$b$c$_.d$e$f$g$)$                  ",
"                        h$i$j$k$l$l$k$m$n$                      ",
"                                                                ",
"                                                                "};
